{"asset":{"generator":"UnityGLTF","version":"2.0"},"extensionsUsed":["KHR_texture_transform"],"scene":0,"scenes":[{"nodes":[0],"name":"cone"}],"accessors":[{"bufferView":0,"componentType":5126,"count":288,"type":"VEC3","max":[0.23809723556041718,0.5952430963516235,0.23809723556041718],"min":[-0.23809723556041718,0,-0.23809723556041718]},{"bufferView":1,"componentType":5126,"count":288,"type":"VEC3","max":[0.9711689949035645,1,0.9711689949035645],"min":[-0.9711689949035645,-1,-0.9711689949035645]},{"bufferView":2,"componentType":5126,"count":288,"type":"VEC4","max":[1,0.030465103685855865,0.9995079040527344,1],"min":[-1,-0.030465103685855865,-0.9995079040527344,1]},{"bufferView":3,"componentType":5126,"count":288,"type":"VEC2","max":[0.84375,0.7250000238418579],"min":[0.71875,0.2749999761581421]},{"bufferView":4,"componentType":5123,"count":516,"type":"SCALAR","max":[287],"min":[0]}],"buffers":[{"byteLength":14856,"uri":"data:application/octet-stream;base64,"}],"bufferViews":[{"buffer":0,"byteLength":3456,"byteStride":12,"target":34962},{"buffer":0,"byteOffset":3456,"byteLength":3456,"byteStride":12,"target":34962},{"buffer":0,"byteOffset":6912,"byteLength":4608,"target":34962},{"buffer":0,"byteOffset":11520,"byteLength":2304,"target":34962},{"buffer":0,"byteOffset":13824,"byteLength":1032,"target":34963}],"images":[{"uri":"Textures/colormap.png","name":"colormap"}],"materials":[{"pbrMetallicRoughness":{"baseColorTexture":{"index":0,"extensions":{"KHR_texture_transform":{"texCoord":0}}},"metallicFactor":0},"doubleSided":true,"name":"colormap"}],"meshes":[{"primitives":[{"attributes":{"POSITION":0,"NORMAL":1,"TANGENT":2,"TEXCOORD_0":3},"indices":4,"material":0}],"name":"cone"}],"nodes":[{"mesh":0,"name":"cone"}],"samplers":[{"minFilter":9987}],"textures":[{"sampler":0,"source":0,"name":"colormap"}]}