{"asset":{"generator":"UnityGLTF","version":"2.0"},"extensionsUsed":["KHR_texture_transform"],"scene":0,"scenes":[{"nodes":[0,1,2,3,4,5],"name":"delivery"}],"accessors":[{"bufferView":0,"componentType":5126,"count":62,"type":"VEC3","max":[0.550000011920929,0,-0.02500000037252903],"min":[-0.550000011920929,-1,-0.11642523109912872]},{"bufferView":1,"componentType":5126,"count":62,"type":"VEC3","max":[1,0.9997930526733398,0.5083140134811401],"min":[-1,-0.8611718416213989,-1]},{"bufferView":2,"componentType":5126,"count":62,"type":"VEC4","max":[1,0.8611718416213989,0.5083140134811401,1],"min":[-1,-0.8611718416213989,-0.5083140134811401,1]},{"bufferView":3,"componentType":5126,"count":62,"type":"VEC2","max":[0.84375,0.7250000238418579],"min":[0.46875,0.5249999761581421]},{"bufferView":4,"componentType":5121,"count":102,"type":"SCALAR","max":[61],"min":[0]},{"bufferView":5,"componentType":5126,"count":672,"type":"VEC3","max":[1.4007756543241157e-14,0.30000001192092896,0.30000001192092896],"min":[-0.3000001013278961,-0.30000001192092896,-0.30000001192092896]},{"bufferView":6,"componentType":5126,"count":672,"type":"VEC3","max":[1,1,1],"min":[-1,-1,-1]},{"bufferView":7,"componentType":5126,"count":672,"type":"VEC4","max":[1,0.11116699129343033,1,1],"min":[-1,-0.11116699129343033,-1,1]},{"bufferView":8,"componentType":5126,"count":672,"type":"VEC2","max":[0.71875,0.7250000238418579],"min":[0.34375,0.5249999761581421]},{"bufferView":9,"componentType":5123,"count":1284,"type":"SCALAR","max":[671],"min":[0]},{"bufferView":10,"componentType":5126,"count":672,"type":"VEC3","max":[0.3000001013278961,0.30000001192092896,0.30000001192092896],"min":[-6.569393737766022e-14,-0.30000001192092896,-0.30000001192092896]},{"bufferView":11,"componentType":5126,"count":672,"type":"VEC3","max":[1,1,1],"min":[-1,-1,-1]},{"bufferView":12,"componentType":5126,"count":672,"type":"VEC4","max":[1,0.11116699129343033,1,1],"min":[-1,-0.11116699129343033,-1,1]},{"bufferView":13,"componentType":5126,"count":672,"type":"VEC2","max":[0.71875,0.7250000238418579],"min":[0.34375,0.5249999761581421]},{"bufferView":14,"componentType":5123,"count":1284,"type":"SCALAR","max":[671],"min":[0]},{"bufferView":15,"componentType":5126,"count":672,"type":"VEC3","max":[1.4007756543241157e-14,0.30000001192092896,0.30000001192092896],"min":[-0.3000001013278961,-0.30000001192092896,-0.30000001192092896]},{"bufferView":16,"componentType":5126,"count":672,"type":"VEC3","max":[1,1,1],"min":[-1,-1,-1]},{"bufferView":17,"componentType":5126,"count":672,"type":"VEC4","max":[1,0.11116699129343033,1,1],"min":[-1,-0.11116699129343033,-1,1]},{"bufferView":18,"componentType":5126,"count":672,"type":"VEC2","max":[0.71875,0.7250000238418579],"min":[0.34375,0.5249999761581421]},{"bufferView":19,"componentType":5123,"count":1284,"type":"SCALAR","max":[671],"min":[0]},{"bufferView":20,"componentType":5126,"count":672,"type":"VEC3","max":[0.3000001013278961,0.30000001192092896,0.30000001192092896],"min":[-6.569393737766022e-14,-0.30000001192092896,-0.30000001192092896]},{"bufferView":21,"componentType":5126,"count":672,"type":"VEC3","max":[1,1,1],"min":[-1,-1,-1]},{"bufferView":22,"componentType":5126,"count":672,"type":"VEC4","max":[1,0.11116699129343033,1,1],"min":[-1,-0.11116699129343033,-1,1]},{"bufferView":23,"componentType":5126,"count":672,"type":"VEC2","max":[0.71875,0.7250000238418579],"min":[0.34375,0.5249999761581421]},{"bufferView":24,"componentType":5123,"count":1284,"type":"SCALAR","max":[671],"min":[0]},{"bufferView":25,"componentType":5126,"count":1780,"type":"VEC3","max":[0.75,1.4999998807907104,1.6249998807907104],"min":[-0.75,0,-1.6249998807907104]},{"bufferView":26,"componentType":5126,"count":1780,"type":"VEC3","max":[1,1,1],"min":[-1,-1,-1]},{"bufferView":27,"componentType":5126,"count":1780,"type":"VEC4","max":[1,0.3844732642173767,1,1],"min":[-1,-0.7071068286895752,-1,1]},{"bufferView":28,"componentType":5126,"count":1780,"type":"VEC2","max":[0.84375,0.9750000238418579],"min":[0.09375,0.2749999761581421]},{"bufferView":29,"componentType":5123,"count":2190,"type":"SCALAR","max":[1779],"min":[0]}],"buffers":[{"byteLength":232196,"uri":"data:application/octet-stream;base64,"}],"bufferViews":[{"buffer":0,"byteLength":744,"byteStride":12,"target":34962},{"buffer":0,"byteOffset":744,"byteLength":744,"byteStride":12,"target":34962},{"buffer":0,"byteOffset":1488,"byteLength":992,"target":34962},{"buffer":0,"byteOffset":2480,"byteLength":496,"target":34962},{"buffer":0,"byteOffset":2976,"byteLength":104,"target":34963},{"buffer":0,"byteOffset":3080,"byteLength":8064,"byteStride":12,"target":34962},{"buffer":0,"byteOffset":11144,"byteLength":8064,"byteStride":12,"target":34962},{"buffer":0,"byteOffset":19208,"byteLength":10752,"target":34962},{"buffer":0,"byteOffset":29960,"byteLength":5376,"target":34962},{"buffer":0,"byteOffset":35336,"byteLength":2568,"target":34963},{"buffer":0,"byteOffset":37904,"byteLength":8064,"byteStride":12,"target":34962},{"buffer":0,"byteOffset":45968,"byteLength":8064,"byteStride":12,"target":34962},{"buffer":0,"byteOffset":54032,"byteLength":10752,"target":34962},{"buffer":0,"byteOffset":64784,"byteLength":5376,"target":34962},{"buffer":0,"byteOffset":70160,"byteLength":2568,"target":34963},{"buffer":0,"byteOffset":72728,"byteLength":8064,"byteStride":12,"target":34962},{"buffer":0,"byteOffset":80792,"byteLength":8064,"byteStride":12,"target":34962},{"buffer":0,"byteOffset":88856,"byteLength":10752,"target":34962},{"buffer":0,"byteOffset":99608,"byteLength":5376,"target":34962},{"buffer":0,"byteOffset":104984,"byteLength":2568,"target":34963},{"buffer":0,"byteOffset":107552,"byteLength":8064,"byteStride":12,"target":34962},{"buffer":0,"byteOffset":115616,"byteLength":8064,"byteStride":12,"target":34962},{"buffer":0,"byteOffset":123680,"byteLength":10752,"target":34962},{"buffer":0,"byteOffset":134432,"byteLength":5376,"target":34962},{"buffer":0,"byteOffset":139808,"byteLength":2568,"target":34963},{"buffer":0,"byteOffset":142376,"byteLength":21360,"byteStride":12,"target":34962},{"buffer":0,"byteOffset":163736,"byteLength":21360,"byteStride":12,"target":34962},{"buffer":0,"byteOffset":185096,"byteLength":28480,"target":34962},{"buffer":0,"byteOffset":213576,"byteLength":14240,"target":34962},{"buffer":0,"byteOffset":227816,"byteLength":4380,"target":34963}],"images":[{"uri":"Textures/colormap.png","name":"colormap"}],"materials":[{"pbrMetallicRoughness":{"baseColorTexture":{"index":0,"extensions":{"KHR_texture_transform":{"texCoord":0}}},"metallicFactor":0},"doubleSided":true,"name":"colormap"}],"meshes":[{"primitives":[{"attributes":{"POSITION":0,"NORMAL":1,"TANGENT":2,"TEXCOORD_0":3},"indices":4,"material":0}],"name":"door"},{"primitives":[{"attributes":{"POSITION":5,"NORMAL":6,"TANGENT":7,"TEXCOORD_0":8},"indices":9,"material":0}],"name":"wheel-front-right"},{"primitives":[{"attributes":{"POSITION":10,"NORMAL":11,"TANGENT":12,"TEXCOORD_0":13},"indices":14,"material":0}],"name":"wheel-front-left"},{"primitives":[{"attributes":{"POSITION":15,"NORMAL":16,"TANGENT":17,"TEXCOORD_0":18},"indices":19,"material":0}],"name":"wheel-back-right"},{"primitives":[{"attributes":{"POSITION":20,"NORMAL":21,"TANGENT":22,"TEXCOORD_0":23},"indices":24,"material":0}],"name":"wheel-back-left"},{"primitives":[{"attributes":{"POSITION":25,"NORMAL":26,"TANGENT":27,"TEXCOORD_0":28},"indices":29,"material":0}],"name":"body"}],"nodes":[{"mesh":0,"translation":[0,1.5,-1.475],"name":"door"},{"mesh":1,"translation":[-0.3,0.3,1.01],"name":"wheel-front-right"},{"mesh":2,"translation":[0.3,0.3,1.01],"name":"wheel-front-left"},{"mesh":3,"translation":[-0.3,0.3,-0.61],"name":"wheel-back-right"},{"mesh":4,"translation":[0.3,0.3,-0.61],"name":"wheel-back-left"},{"mesh":5,"translation":[0,0.15,-0.025],"name":"body"}],"samplers":[{"minFilter":9987}],"textures":[{"sampler":0,"source":0,"name":"colormap"}]}