{"asset":{"generator":"UnityGLTF","version":"2.0"},"extensionsUsed":["KHR_texture_transform"],"scene":0,"scenes":[{"nodes":[0,1,2,3,4],"name":"hatchback-sports"}],"accessors":[{"bufferView":0,"componentType":5126,"count":528,"type":"VEC3","max":[0.05000000074505806,0.30000001192092896,0.30000001192092896],"min":[-0.3000001907348633,-0.30000001192092896,-0.30000001192092896]},{"bufferView":1,"componentType":5126,"count":528,"type":"VEC3","max":[1,0.9784755706787109,0.9784755706787109],"min":[-1,-0.9784755706787109,-0.9784755706787109]},{"bufferView":2,"componentType":5126,"count":528,"type":"VEC4","max":[0.9784755706787109,0.2067129760980606,1,1],"min":[-0.9784755706787109,-0.2067129760980606,-1,1]},{"bufferView":3,"componentType":5126,"count":528,"type":"VEC2","max":[0.71875,0.7250000238418579],"min":[0.34375,0.5249999761581421]},{"bufferView":4,"componentType":5123,"count":996,"type":"SCALAR","max":[527],"min":[0]},{"bufferView":5,"componentType":5126,"count":528,"type":"VEC3","max":[0.3000001907348633,0.30000001192092896,0.30000001192092896],"min":[-0.05000000074505806,-0.30000001192092896,-0.30000001192092896]},{"bufferView":6,"componentType":5126,"count":528,"type":"VEC3","max":[1,0.9784755706787109,0.9784755706787109],"min":[-1,-0.9784755706787109,-0.9784755706787109]},{"bufferView":7,"componentType":5126,"count":528,"type":"VEC4","max":[0.9784755706787109,0.2067129760980606,1,1],"min":[-0.9784755706787109,-0.2067129760980606,-1,1]},{"bufferView":8,"componentType":5126,"count":528,"type":"VEC2","max":[0.71875,0.7250000238418579],"min":[0.34375,0.5249999761581421]},{"bufferView":9,"componentType":5123,"count":996,"type":"SCALAR","max":[527],"min":[0]},{"bufferView":10,"componentType":5126,"count":528,"type":"VEC3","max":[0.05000000074505806,0.30000001192092896,0.30000001192092896],"min":[-0.3000001907348633,-0.30000001192092896,-0.30000001192092896]},{"bufferView":11,"componentType":5126,"count":528,"type":"VEC3","max":[1,0.9784755706787109,0.9784755706787109],"min":[-1,-0.9784755706787109,-0.9784755706787109]},{"bufferView":12,"componentType":5126,"count":528,"type":"VEC4","max":[0.9784755706787109,0.2067129760980606,1,1],"min":[-0.9784755706787109,-0.2067129760980606,-1,1]},{"bufferView":13,"componentType":5126,"count":528,"type":"VEC2","max":[0.71875,0.7250000238418579],"min":[0.34375,0.5249999761581421]},{"bufferView":14,"componentType":5123,"count":996,"type":"SCALAR","max":[527],"min":[0]},{"bufferView":15,"componentType":5126,"count":528,"type":"VEC3","max":[0.3000001907348633,0.30000001192092896,0.30000001192092896],"min":[-0.05000000074505806,-0.30000001192092896,-0.30000001192092896]},{"bufferView":16,"componentType":5126,"count":528,"type":"VEC3","max":[1,0.9784755706787109,0.9784755706787109],"min":[-1,-0.9784755706787109,-0.9784755706787109]},{"bufferView":17,"componentType":5126,"count":528,"type":"VEC4","max":[0.9784755706787109,0.2067129760980606,1,1],"min":[-0.9784755706787109,-0.2067129760980606,-1,1]},{"bufferView":18,"componentType":5126,"count":528,"type":"VEC2","max":[0.71875,0.7250000238418579],"min":[0.34375,0.5249999761581421]},{"bufferView":19,"componentType":5123,"count":996,"type":"SCALAR","max":[527],"min":[0]},{"bufferView":20,"componentType":5126,"count":1597,"type":"VEC3","max":[0.6499999761581421,0.949999988079071,1.4250000715255737],"min":[-0.6499999761581421,0,-1.4250000715255737]},{"bufferView":21,"componentType":5126,"count":1597,"type":"VEC3","max":[1,1,1],"min":[-1,-1,-1.0000001192092896]},{"bufferView":22,"componentType":5126,"count":1597,"type":"VEC4","max":[1,0.7071068286895752,1,1],"min":[-1,-0.7071068286895752,-1,1]},{"bufferView":23,"componentType":5126,"count":1597,"type":"VEC2","max":[0.84375,0.9750000238418579],"min":[0.09375,0.2749999761581421]},{"bufferView":24,"componentType":5123,"count":2280,"type":"SCALAR","max":[1596],"min":[0]}],"buffers":[{"byteLength":190560,"uri":"data:application/octet-stream;base64,"}],"bufferViews":[{"buffer":0,"byteLength":6336,"byteStride":12,"target":34962},{"buffer":0,"byteOffset":6336,"byteLength":6336,"byteStride":12,"target":34962},{"buffer":0,"byteOffset":12672,"byteLength":8448,"target":34962},{"buffer":0,"byteOffset":21120,"byteLength":4224,"target":34962},{"buffer":0,"byteOffset":25344,"byteLength":1992,"target":34963},{"buffer":0,"byteOffset":27336,"byteLength":6336,"byteStride":12,"target":34962},{"buffer":0,"byteOffset":33672,"byteLength":6336,"byteStride":12,"target":34962},{"buffer":0,"byteOffset":40008,"byteLength":8448,"target":34962},{"buffer":0,"byteOffset":48456,"byteLength":4224,"target":34962},{"buffer":0,"byteOffset":52680,"byteLength":1992,"target":34963},{"buffer":0,"byteOffset":54672,"byteLength":6336,"byteStride":12,"target":34962},{"buffer":0,"byteOffset":61008,"byteLength":6336,"byteStride":12,"target":34962},{"buffer":0,"byteOffset":67344,"byteLength":8448,"target":34962},{"buffer":0,"byteOffset":75792,"byteLength":4224,"target":34962},{"buffer":0,"byteOffset":80016,"byteLength":1992,"target":34963},{"buffer":0,"byteOffset":82008,"byteLength":6336,"byteStride":12,"target":34962},{"buffer":0,"byteOffset":88344,"byteLength":6336,"byteStride":12,"target":34962},{"buffer":0,"byteOffset":94680,"byteLength":8448,"target":34962},{"buffer":0,"byteOffset":103128,"byteLength":4224,"target":34962},{"buffer":0,"byteOffset":107352,"byteLength":1992,"target":34963},{"buffer":0,"byteOffset":109344,"byteLength":19164,"byteStride":12,"target":34962},{"buffer":0,"byteOffset":128508,"byteLength":19164,"byteStride":12,"target":34962},{"buffer":0,"byteOffset":147672,"byteLength":25552,"target":34962},{"buffer":0,"byteOffset":173224,"byteLength":12776,"target":34962},{"buffer":0,"byteOffset":186000,"byteLength":4560,"target":34963}],"images":[{"uri":"Textures/colormap.png","name":"colormap"}],"materials":[{"pbrMetallicRoughness":{"baseColorTexture":{"index":0,"extensions":{"KHR_texture_transform":{"texCoord":0}}},"metallicFactor":0},"doubleSided":true,"name":"colormap"}],"meshes":[{"primitives":[{"attributes":{"POSITION":0,"NORMAL":1,"TANGENT":2,"TEXCOORD_0":3},"indices":4,"material":0}],"name":"wheel-front-right"},{"primitives":[{"attributes":{"POSITION":5,"NORMAL":6,"TANGENT":7,"TEXCOORD_0":8},"indices":9,"material":0}],"name":"wheel-front-left"},{"primitives":[{"attributes":{"POSITION":10,"NORMAL":11,"TANGENT":12,"TEXCOORD_0":13},"indices":14,"material":0}],"name":"wheel-back-right"},{"primitives":[{"attributes":{"POSITION":15,"NORMAL":16,"TANGENT":17,"TEXCOORD_0":18},"indices":19,"material":0}],"name":"wheel-back-left"},{"primitives":[{"attributes":{"POSITION":20,"NORMAL":21,"TANGENT":22,"TEXCOORD_0":23},"indices":24,"material":0}],"name":"body"}],"nodes":[{"mesh":0,"translation":[-0.3,0.3,0.809999943],"name":"wheel-front-right"},{"mesh":1,"translation":[0.3,0.3,0.809999943],"name":"wheel-front-left"},{"mesh":2,"translation":[-0.3,0.3,-0.809999943],"name":"wheel-back-right"},{"mesh":3,"translation":[0.3,0.3,-0.809999943],"name":"wheel-back-left"},{"mesh":4,"translation":[0,0.15,-0.025],"name":"body"}],"samplers":[{"minFilter":9987}],"textures":[{"sampler":0,"source":0,"name":"colormap"}]}