{"asset":{"generator":"UnityGLTF","version":"2.0"},"extensionsUsed":["KHR_texture_transform"],"scene":0,"scenes":[{"nodes":[0,1,3,4,5],"name":"sedan-sports"}],"accessors":[{"bufferView":0,"componentType":5126,"count":528,"type":"VEC3","max":[0.05000000074505806,0.30000001192092896,0.30000001192092896],"min":[-0.3000001907348633,-0.30000001192092896,-0.30000001192092896]},{"bufferView":1,"componentType":5126,"count":528,"type":"VEC3","max":[1,0.9784755706787109,0.9784755706787109],"min":[-1,-0.9784755706787109,-0.9784755706787109]},{"bufferView":2,"componentType":5126,"count":528,"type":"VEC4","max":[0.9784755706787109,0.2067129760980606,1,1],"min":[-0.9784755706787109,-0.2067129760980606,-1,1]},{"bufferView":3,"componentType":5126,"count":528,"type":"VEC2","max":[0.71875,0.7250000238418579],"min":[0.34375,0.5249999761581421]},{"bufferView":4,"componentType":5123,"count":996,"type":"SCALAR","max":[527],"min":[0]},{"bufferView":5,"componentType":5126,"count":1078,"type":"VEC3","max":[0.6499999761581421,0.9499999284744263,1.274999976158142],"min":[-0.6499999761581421,0,-1.274999976158142]},{"bufferView":6,"componentType":5126,"count":1078,"type":"VEC3","max":[1,1,1],"min":[-1,-1,-1]},{"bufferView":7,"componentType":5126,"count":1078,"type":"VEC4","max":[1,0.7071068286895752,1,1],"min":[-1,-0.7071068286895752,-1,1]},{"bufferView":8,"componentType":5126,"count":1078,"type":"VEC2","max":[0.84375,0.9750000238418579],"min":[0.09375,0.2749999761581421]},{"bufferView":9,"componentType":5123,"count":2136,"type":"SCALAR","max":[1077],"min":[0]},{"bufferView":10,"componentType":5126,"count":78,"type":"VEC3","max":[0.550000011920929,0.30000001192092896,0.11868619173765182],"min":[-0.550000011920929,0,-0.11868619173765182]},{"bufferView":11,"componentType":5126,"count":78,"type":"VEC3","max":[1,1,1],"min":[-1,-1,-1]},{"bufferView":12,"componentType":5126,"count":78,"type":"VEC4","max":[1,0,1,1],"min":[-1,0,-1,1]},{"bufferView":13,"componentType":5126,"count":78,"type":"VEC2","max":[0.84375,0.7250000238418579],"min":[0.34375,0.2749999761581421]},{"bufferView":14,"componentType":5121,"count":144,"type":"SCALAR","max":[77],"min":[0]},{"bufferView":15,"componentType":5126,"count":528,"type":"VEC3","max":[0.3000001907348633,0.30000001192092896,0.30000001192092896],"min":[-0.05000000074505806,-0.30000001192092896,-0.30000001192092896]},{"bufferView":16,"componentType":5126,"count":528,"type":"VEC3","max":[1,0.9784755706787109,0.9784755706787109],"min":[-1,-0.9784755706787109,-0.9784755706787109]},{"bufferView":17,"componentType":5126,"count":528,"type":"VEC4","max":[0.9784755706787109,0.2067129760980606,1,1],"min":[-0.9784755706787109,-0.2067129760980606,-1,1]},{"bufferView":18,"componentType":5126,"count":528,"type":"VEC2","max":[0.71875,0.7250000238418579],"min":[0.34375,0.5249999761581421]},{"bufferView":19,"componentType":5123,"count":996,"type":"SCALAR","max":[527],"min":[0]},{"bufferView":20,"componentType":5126,"count":528,"type":"VEC3","max":[0.3000001907348633,0.30000001192092896,0.30000001192092896],"min":[-0.05000000074505806,-0.30000001192092896,-0.30000001192092896]},{"bufferView":21,"componentType":5126,"count":528,"type":"VEC3","max":[1,0.9784755706787109,0.9784755706787109],"min":[-1,-0.9784755706787109,-0.9784755706787109]},{"bufferView":22,"componentType":5126,"count":528,"type":"VEC4","max":[0.9784755706787109,0.2067129760980606,1,1],"min":[-0.9784755706787109,-0.2067129760980606,-1,1]},{"bufferView":23,"componentType":5126,"count":528,"type":"VEC2","max":[0.71875,0.7250000238418579],"min":[0.34375,0.5249999761581421]},{"bufferView":24,"componentType":5123,"count":996,"type":"SCALAR","max":[527],"min":[0]},{"bufferView":25,"componentType":5126,"count":528,"type":"VEC3","max":[0.05000000074505806,0.30000001192092896,0.30000001192092896],"min":[-0.3000001907348633,-0.30000001192092896,-0.30000001192092896]},{"bufferView":26,"componentType":5126,"count":528,"type":"VEC3","max":[1,0.9784755706787109,0.9784755706787109],"min":[-1,-0.9784755706787109,-0.9784755706787109]},{"bufferView":27,"componentType":5126,"count":528,"type":"VEC4","max":[0.9784755706787109,0.2067129760980606,1,1],"min":[-0.9784755706787109,-0.2067129760980606,-1,1]},{"bufferView":28,"componentType":5126,"count":528,"type":"VEC2","max":[0.71875,0.7250000238418579],"min":[0.34375,0.5249999761581421]},{"bufferView":29,"componentType":5123,"count":996,"type":"SCALAR","max":[527],"min":[0]}],"buffers":[{"byteLength":169248,"uri":"data:application/octet-stream;base64,"}],"bufferViews":[{"buffer":0,"byteLength":6336,"byteStride":12,"target":34962},{"buffer":0,"byteOffset":6336,"byteLength":6336,"byteStride":12,"target":34962},{"buffer":0,"byteOffset":12672,"byteLength":8448,"target":34962},{"buffer":0,"byteOffset":21120,"byteLength":4224,"target":34962},{"buffer":0,"byteOffset":25344,"byteLength":1992,"target":34963},{"buffer":0,"byteOffset":27336,"byteLength":12936,"byteStride":12,"target":34962},{"buffer":0,"byteOffset":40272,"byteLength":12936,"byteStride":12,"target":34962},{"buffer":0,"byteOffset":53208,"byteLength":17248,"target":34962},{"buffer":0,"byteOffset":70456,"byteLength":8624,"target":34962},{"buffer":0,"byteOffset":79080,"byteLength":4272,"target":34963},{"buffer":0,"byteOffset":83352,"byteLength":936,"byteStride":12,"target":34962},{"buffer":0,"byteOffset":84288,"byteLength":936,"byteStride":12,"target":34962},{"buffer":0,"byteOffset":85224,"byteLength":1248,"target":34962},{"buffer":0,"byteOffset":86472,"byteLength":624,"target":34962},{"buffer":0,"byteOffset":87096,"byteLength":144,"target":34963},{"buffer":0,"byteOffset":87240,"byteLength":6336,"byteStride":12,"target":34962},{"buffer":0,"byteOffset":93576,"byteLength":6336,"byteStride":12,"target":34962},{"buffer":0,"byteOffset":99912,"byteLength":8448,"target":34962},{"buffer":0,"byteOffset":108360,"byteLength":4224,"target":34962},{"buffer":0,"byteOffset":112584,"byteLength":1992,"target":34963},{"buffer":0,"byteOffset":114576,"byteLength":6336,"byteStride":12,"target":34962},{"buffer":0,"byteOffset":120912,"byteLength":6336,"byteStride":12,"target":34962},{"buffer":0,"byteOffset":127248,"byteLength":8448,"target":34962},{"buffer":0,"byteOffset":135696,"byteLength":4224,"target":34962},{"buffer":0,"byteOffset":139920,"byteLength":1992,"target":34963},{"buffer":0,"byteOffset":141912,"byteLength":6336,"byteStride":12,"target":34962},{"buffer":0,"byteOffset":148248,"byteLength":6336,"byteStride":12,"target":34962},{"buffer":0,"byteOffset":154584,"byteLength":8448,"target":34962},{"buffer":0,"byteOffset":163032,"byteLength":4224,"target":34962},{"buffer":0,"byteOffset":167256,"byteLength":1992,"target":34963}],"images":[{"uri":"Textures/colormap.png","name":"colormap"}],"materials":[{"pbrMetallicRoughness":{"baseColorTexture":{"index":0,"extensions":{"KHR_texture_transform":{"texCoord":0}}},"metallicFactor":0},"doubleSided":true,"name":"colormap"}],"meshes":[{"primitives":[{"attributes":{"POSITION":0,"NORMAL":1,"TANGENT":2,"TEXCOORD_0":3},"indices":4,"material":0}],"name":"wheel-back-right"},{"primitives":[{"attributes":{"POSITION":5,"NORMAL":6,"TANGENT":7,"TEXCOORD_0":8},"indices":9,"material":0}],"name":"body"},{"primitives":[{"attributes":{"POSITION":10,"NORMAL":11,"TANGENT":12,"TEXCOORD_0":13},"indices":14,"material":0}],"name":"spoiler"},{"primitives":[{"attributes":{"POSITION":15,"NORMAL":16,"TANGENT":17,"TEXCOORD_0":18},"indices":19,"material":0}],"name":"wheel-back-left"},{"primitives":[{"attributes":{"POSITION":20,"NORMAL":21,"TANGENT":22,"TEXCOORD_0":23},"indices":24,"material":0}],"name":"wheel-front-left"},{"primitives":[{"attributes":{"POSITION":25,"NORMAL":26,"TANGENT":27,"TEXCOORD_0":28},"indices":29,"material":0}],"name":"wheel-front-right"}],"nodes":[{"mesh":0,"translation":[-0.3,0.3,-0.659999967],"name":"wheel-back-right"},{"children":[2],"mesh":1,"translation":[0,0.15,-0.025],"name":"body"},{"mesh":2,"translation":[0,0.45,-1.04368615],"name":"spoiler"},{"mesh":3,"translation":[0.3,0.3,-0.659999967],"name":"wheel-back-left"},{"mesh":4,"translation":[0.3,0.3,0.659999967],"name":"wheel-front-left"},{"mesh":5,"translation":[-0.3,0.3,0.659999967],"name":"wheel-front-right"}],"samplers":[{"minFilter":9987}],"textures":[{"sampler":0,"source":0,"name":"colormap"}]}