{"asset":{"generator":"UnityGLTF","version":"2.0"},"extensionsUsed":["KHR_texture_transform"],"scene":0,"scenes":[{"nodes":[0,2,3,4,5],"name":"suv"}],"accessors":[{"bufferView":0,"componentType":5126,"count":1196,"type":"VEC3","max":[0.75,1.100000023841858,1.350000023841858],"min":[-0.75,0,-1.1999996900558472]},{"bufferView":1,"componentType":5126,"count":1196,"type":"VEC3","max":[1,1,1],"min":[-1,-1,-1]},{"bufferView":2,"componentType":5126,"count":1196,"type":"VEC4","max":[1,0.7071068286895752,1,1],"min":[-1,-0.7071068286895752,-1,1]},{"bufferView":3,"componentType":5126,"count":1196,"type":"VEC2","max":[0.84375,0.9750000238418579],"min":[0.09375,0.2749999761581421]},{"bufferView":4,"componentType":5123,"count":2442,"type":"SCALAR","max":[1195],"min":[0]},{"bufferView":5,"componentType":5126,"count":528,"type":"VEC3","max":[0.30000004172325134,0.30000001192092896,0.050000037997961044],"min":[-0.30000007152557373,-0.30000001192092896,-0.30000022053718567]},{"bufferView":6,"componentType":5126,"count":528,"type":"VEC3","max":[0.9784756898880005,0.9784755706787109,1.0000001192092896],"min":[-0.9784756898880005,-0.9784755706787109,-1.0000001192092896]},{"bufferView":7,"componentType":5126,"count":528,"type":"VEC4","max":[1.0000001192092896,0.2067129760980606,0.9784756898880005,1],"min":[-1.0000001192092896,-0.2067129760980606,-0.9784756898880005,1]},{"bufferView":8,"componentType":5126,"count":528,"type":"VEC2","max":[0.71875,0.7250000238418579],"min":[0.34375,0.5249999761581421]},{"bufferView":9,"componentType":5123,"count":996,"type":"SCALAR","max":[527],"min":[0]},{"bufferView":10,"componentType":5126,"count":528,"type":"VEC3","max":[0.3000001013278961,0.30000001192092896,0.30000001192092896],"min":[-0.05000000074505806,-0.30000001192092896,-0.30000001192092896]},{"bufferView":11,"componentType":5126,"count":528,"type":"VEC3","max":[1,0.9784755706787109,0.9784755706787109],"min":[-1,-0.9784755706787109,-0.9784755706787109]},{"bufferView":12,"componentType":5126,"count":528,"type":"VEC4","max":[0.9784755706787109,0.2067129760980606,1,1],"min":[-0.9784755706787109,-0.2067129760980606,-1,1]},{"bufferView":13,"componentType":5126,"count":528,"type":"VEC2","max":[0.71875,0.7250000238418579],"min":[0.34375,0.5249999761581421]},{"bufferView":14,"componentType":5123,"count":996,"type":"SCALAR","max":[527],"min":[0]},{"bufferView":15,"componentType":5126,"count":528,"type":"VEC3","max":[0.05000000074505806,0.30000001192092896,0.30000001192092896],"min":[-0.3000001013278961,-0.30000001192092896,-0.30000001192092896]},{"bufferView":16,"componentType":5126,"count":528,"type":"VEC3","max":[1,0.9784755706787109,0.9784755706787109],"min":[-1,-0.9784755706787109,-0.9784755706787109]},{"bufferView":17,"componentType":5126,"count":528,"type":"VEC4","max":[0.9784755706787109,0.2067129760980606,1,1],"min":[-0.9784755706787109,-0.2067129760980606,-1,1]},{"bufferView":18,"componentType":5126,"count":528,"type":"VEC2","max":[0.71875,0.7250000238418579],"min":[0.34375,0.5249999761581421]},{"bufferView":19,"componentType":5123,"count":996,"type":"SCALAR","max":[527],"min":[0]},{"bufferView":20,"componentType":5126,"count":528,"type":"VEC3","max":[0.3000001013278961,0.30000001192092896,0.30000001192092896],"min":[-0.05000000074505806,-0.30000001192092896,-0.30000001192092896]},{"bufferView":21,"componentType":5126,"count":528,"type":"VEC3","max":[1,0.9784755706787109,0.9784755706787109],"min":[-1,-0.9784755706787109,-0.9784755706787109]},{"bufferView":22,"componentType":5126,"count":528,"type":"VEC4","max":[0.9784755706787109,0.2067129760980606,1,1],"min":[-0.9784755706787109,-0.2067129760980606,-1,1]},{"bufferView":23,"componentType":5126,"count":528,"type":"VEC2","max":[0.71875,0.7250000238418579],"min":[0.34375,0.5249999761581421]},{"bufferView":24,"componentType":5123,"count":996,"type":"SCALAR","max":[527],"min":[0]},{"bufferView":25,"componentType":5126,"count":528,"type":"VEC3","max":[0.05000000074505806,0.30000001192092896,0.30000001192092896],"min":[-0.3000001013278961,-0.30000001192092896,-0.30000001192092896]},{"bufferView":26,"componentType":5126,"count":528,"type":"VEC3","max":[1,0.9784755706787109,0.9784755706787109],"min":[-1,-0.9784755706787109,-0.9784755706787109]},{"bufferView":27,"componentType":5126,"count":528,"type":"VEC4","max":[0.9784755706787109,0.2067129760980606,1,1],"min":[-0.9784755706787109,-0.2067129760980606,-1,1]},{"bufferView":28,"componentType":5126,"count":528,"type":"VEC2","max":[0.71875,0.7250000238418579],"min":[0.34375,0.5249999761581421]},{"bufferView":29,"componentType":5123,"count":996,"type":"SCALAR","max":[527],"min":[0]}],"buffers":[{"byteLength":198972,"uri":"data:application/octet-stream;base64,"}],"bufferViews":[{"buffer":0,"byteLength":14352,"byteStride":12,"target":34962},{"buffer":0,"byteOffset":14352,"byteLength":14352,"byteStride":12,"target":34962},{"buffer":0,"byteOffset":28704,"byteLength":19136,"target":34962},{"buffer":0,"byteOffset":47840,"byteLength":9568,"target":34962},{"buffer":0,"byteOffset":57408,"byteLength":4884,"target":34963},{"buffer":0,"byteOffset":62292,"byteLength":6336,"byteStride":12,"target":34962},{"buffer":0,"byteOffset":68628,"byteLength":6336,"byteStride":12,"target":34962},{"buffer":0,"byteOffset":74964,"byteLength":8448,"target":34962},{"buffer":0,"byteOffset":83412,"byteLength":4224,"target":34962},{"buffer":0,"byteOffset":87636,"byteLength":1992,"target":34963},{"buffer":0,"byteOffset":89628,"byteLength":6336,"byteStride":12,"target":34962},{"buffer":0,"byteOffset":95964,"byteLength":6336,"byteStride":12,"target":34962},{"buffer":0,"byteOffset":102300,"byteLength":8448,"target":34962},{"buffer":0,"byteOffset":110748,"byteLength":4224,"target":34962},{"buffer":0,"byteOffset":114972,"byteLength":1992,"target":34963},{"buffer":0,"byteOffset":116964,"byteLength":6336,"byteStride":12,"target":34962},{"buffer":0,"byteOffset":123300,"byteLength":6336,"byteStride":12,"target":34962},{"buffer":0,"byteOffset":129636,"byteLength":8448,"target":34962},{"buffer":0,"byteOffset":138084,"byteLength":4224,"target":34962},{"buffer":0,"byteOffset":142308,"byteLength":1992,"target":34963},{"buffer":0,"byteOffset":144300,"byteLength":6336,"byteStride":12,"target":34962},{"buffer":0,"byteOffset":150636,"byteLength":6336,"byteStride":12,"target":34962},{"buffer":0,"byteOffset":156972,"byteLength":8448,"target":34962},{"buffer":0,"byteOffset":165420,"byteLength":4224,"target":34962},{"buffer":0,"byteOffset":169644,"byteLength":1992,"target":34963},{"buffer":0,"byteOffset":171636,"byteLength":6336,"byteStride":12,"target":34962},{"buffer":0,"byteOffset":177972,"byteLength":6336,"byteStride":12,"target":34962},{"buffer":0,"byteOffset":184308,"byteLength":8448,"target":34962},{"buffer":0,"byteOffset":192756,"byteLength":4224,"target":34962},{"buffer":0,"byteOffset":196980,"byteLength":1992,"target":34963}],"images":[{"uri":"Textures/colormap.png","name":"colormap"}],"materials":[{"pbrMetallicRoughness":{"baseColorTexture":{"index":0,"extensions":{"KHR_texture_transform":{"texCoord":0}}},"metallicFactor":0},"doubleSided":true,"name":"colormap"}],"meshes":[{"primitives":[{"attributes":{"POSITION":0,"NORMAL":1,"TANGENT":2,"TEXCOORD_0":3},"indices":4,"material":0}],"name":"body"},{"primitives":[{"attributes":{"POSITION":5,"NORMAL":6,"TANGENT":7,"TEXCOORD_0":8},"indices":9,"material":0}],"name":"wheel-back"},{"primitives":[{"attributes":{"POSITION":10,"NORMAL":11,"TANGENT":12,"TEXCOORD_0":13},"indices":14,"material":0}],"name":"wheel-back-left"},{"primitives":[{"attributes":{"POSITION":15,"NORMAL":16,"TANGENT":17,"TEXCOORD_0":18},"indices":19,"material":0}],"name":"wheel-back-right"},{"primitives":[{"attributes":{"POSITION":20,"NORMAL":21,"TANGENT":22,"TEXCOORD_0":23},"indices":24,"material":0}],"name":"wheel-front-left"},{"primitives":[{"attributes":{"POSITION":25,"NORMAL":26,"TANGENT":27,"TEXCOORD_0":28},"indices":29,"material":0}],"name":"wheel-front-right"}],"nodes":[{"children":[1],"mesh":0,"translation":[0,0.2,-2.88764564e-15],"name":"body"},{"mesh":1,"translation":[0,0.5,-1.04999971],"name":"wheel-back"},{"mesh":2,"translation":[0.3,0.3,-0.56],"name":"wheel-back-left"},{"mesh":3,"translation":[-0.3,0.3,-0.56],"name":"wheel-back-right"},{"mesh":4,"translation":[0.3,0.3,0.76],"name":"wheel-front-left"},{"mesh":5,"translation":[-0.3,0.3,0.76],"name":"wheel-front-right"}],"samplers":[{"minFilter":9987}],"textures":[{"sampler":0,"source":0,"name":"colormap"}]}