{"asset":{"generator":"UnityGLTF","version":"2.0"},"extensionsUsed":["KHR_texture_transform"],"scene":0,"scenes":[{"nodes":[0,1,2,3,4],"name":"taxi"}],"accessors":[{"bufferView":0,"componentType":5126,"count":1138,"type":"VEC3","max":[0.75,1.3499999046325684,1.3749998807907104],"min":[-0.75,0,-1.3749998807907104]},{"bufferView":1,"componentType":5126,"count":1138,"type":"VEC3","max":[1,1,1],"min":[-1,-1,-1]},{"bufferView":2,"componentType":5126,"count":1138,"type":"VEC4","max":[1,0.7071068286895752,1,1],"min":[-1,-0.7071068286895752,-1,1]},{"bufferView":3,"componentType":5126,"count":1138,"type":"VEC2","max":[0.84375,0.9750000238418579],"min":[0.09375,0.3046296238899231]},{"bufferView":4,"componentType":5123,"count":2232,"type":"SCALAR","max":[1137],"min":[0]},{"bufferView":5,"componentType":5126,"count":528,"type":"VEC3","max":[4.331468316616169e-14,0.30000001192092896,0.30000001192092896],"min":[-0.3000001907348633,-0.30000001192092896,-0.30000001192092896]},{"bufferView":6,"componentType":5126,"count":528,"type":"VEC3","max":[1,0.9784755706787109,0.9784755706787109],"min":[-1,-0.9784755706787109,-0.9784755706787109]},{"bufferView":7,"componentType":5126,"count":528,"type":"VEC4","max":[0.9784755706787109,0.2067129760980606,1,1],"min":[-0.9784755706787109,-0.2067129760980606,-1,1]},{"bufferView":8,"componentType":5126,"count":528,"type":"VEC2","max":[0.46875,0.7250000238418579],"min":[0.34375,0.5249999761581421]},{"bufferView":9,"componentType":5123,"count":996,"type":"SCALAR","max":[527],"min":[0]},{"bufferView":10,"componentType":5126,"count":528,"type":"VEC3","max":[0.3000001907348633,0.30000001192092896,0.30000001192092896],"min":[-2.7054104941547086e-13,-0.30000001192092896,-0.30000001192092896]},{"bufferView":11,"componentType":5126,"count":528,"type":"VEC3","max":[1,0.9784755706787109,0.9784755706787109],"min":[-1,-0.9784755706787109,-0.9784755706787109]},{"bufferView":12,"componentType":5126,"count":528,"type":"VEC4","max":[0.9784755706787109,0.2067129760980606,1,1],"min":[-0.9784755706787109,-0.2067129760980606,-1,1]},{"bufferView":13,"componentType":5126,"count":528,"type":"VEC2","max":[0.46875,0.7250000238418579],"min":[0.34375,0.5249999761581421]},{"bufferView":14,"componentType":5123,"count":996,"type":"SCALAR","max":[527],"min":[0]},{"bufferView":15,"componentType":5126,"count":528,"type":"VEC3","max":[0.3000001907348633,0.30000001192092896,0.30000001192092896],"min":[-2.7054104941547086e-13,-0.30000001192092896,-0.30000001192092896]},{"bufferView":16,"componentType":5126,"count":528,"type":"VEC3","max":[1,0.9784755706787109,0.9784755706787109],"min":[-1,-0.9784755706787109,-0.9784755706787109]},{"bufferView":17,"componentType":5126,"count":528,"type":"VEC4","max":[0.9784755706787109,0.2067129760980606,1,1],"min":[-0.9784755706787109,-0.2067129760980606,-1,1]},{"bufferView":18,"componentType":5126,"count":528,"type":"VEC2","max":[0.46875,0.7250000238418579],"min":[0.34375,0.5249999761581421]},{"bufferView":19,"componentType":5123,"count":996,"type":"SCALAR","max":[527],"min":[0]},{"bufferView":20,"componentType":5126,"count":528,"type":"VEC3","max":[4.331468316616169e-14,0.30000001192092896,0.30000001192092896],"min":[-0.3000001907348633,-0.30000001192092896,-0.30000001192092896]},{"bufferView":21,"componentType":5126,"count":528,"type":"VEC3","max":[1,0.9784755706787109,0.9784755706787109],"min":[-1,-0.9784755706787109,-0.9784755706787109]},{"bufferView":22,"componentType":5126,"count":528,"type":"VEC4","max":[0.9784755706787109,0.2067129760980606,1,1],"min":[-0.9784755706787109,-0.2067129760980606,-1,1]},{"bufferView":23,"componentType":5126,"count":528,"type":"VEC2","max":[0.46875,0.7250000238418579],"min":[0.34375,0.5249999761581421]},{"bufferView":24,"componentType":5123,"count":996,"type":"SCALAR","max":[527],"min":[0]}],"buffers":[{"byteLength":168432,"uri":"data:application/octet-stream;base64,"}],"bufferViews":[{"buffer":0,"byteLength":13656,"byteStride":12,"target":34962},{"buffer":0,"byteOffset":13656,"byteLength":13656,"byteStride":12,"target":34962},{"buffer":0,"byteOffset":27312,"byteLength":18208,"target":34962},{"buffer":0,"byteOffset":45520,"byteLength":9104,"target":34962},{"buffer":0,"byteOffset":54624,"byteLength":4464,"target":34963},{"buffer":0,"byteOffset":59088,"byteLength":6336,"byteStride":12,"target":34962},{"buffer":0,"byteOffset":65424,"byteLength":6336,"byteStride":12,"target":34962},{"buffer":0,"byteOffset":71760,"byteLength":8448,"target":34962},{"buffer":0,"byteOffset":80208,"byteLength":4224,"target":34962},{"buffer":0,"byteOffset":84432,"byteLength":1992,"target":34963},{"buffer":0,"byteOffset":86424,"byteLength":6336,"byteStride":12,"target":34962},{"buffer":0,"byteOffset":92760,"byteLength":6336,"byteStride":12,"target":34962},{"buffer":0,"byteOffset":99096,"byteLength":8448,"target":34962},{"buffer":0,"byteOffset":107544,"byteLength":4224,"target":34962},{"buffer":0,"byteOffset":111768,"byteLength":1992,"target":34963},{"buffer":0,"byteOffset":113760,"byteLength":6336,"byteStride":12,"target":34962},{"buffer":0,"byteOffset":120096,"byteLength":6336,"byteStride":12,"target":34962},{"buffer":0,"byteOffset":126432,"byteLength":8448,"target":34962},{"buffer":0,"byteOffset":134880,"byteLength":4224,"target":34962},{"buffer":0,"byteOffset":139104,"byteLength":1992,"target":34963},{"buffer":0,"byteOffset":141096,"byteLength":6336,"byteStride":12,"target":34962},{"buffer":0,"byteOffset":147432,"byteLength":6336,"byteStride":12,"target":34962},{"buffer":0,"byteOffset":153768,"byteLength":8448,"target":34962},{"buffer":0,"byteOffset":162216,"byteLength":4224,"target":34962},{"buffer":0,"byteOffset":166440,"byteLength":1992,"target":34963}],"images":[{"uri":"Textures/colormap.png","name":"colormap"}],"materials":[{"pbrMetallicRoughness":{"baseColorTexture":{"index":0,"extensions":{"KHR_texture_transform":{"texCoord":0}}},"metallicFactor":0},"doubleSided":true,"name":"colormap"}],"meshes":[{"primitives":[{"attributes":{"POSITION":0,"NORMAL":1,"TANGENT":2,"TEXCOORD_0":3},"indices":4,"material":0}],"name":"body"},{"primitives":[{"attributes":{"POSITION":5,"NORMAL":6,"TANGENT":7,"TEXCOORD_0":8},"indices":9,"material":0}],"name":"wheel-front-right"},{"primitives":[{"attributes":{"POSITION":10,"NORMAL":11,"TANGENT":12,"TEXCOORD_0":13},"indices":14,"material":0}],"name":"wheel-front-left"},{"primitives":[{"attributes":{"POSITION":15,"NORMAL":16,"TANGENT":17,"TEXCOORD_0":18},"indices":19,"material":0}],"name":"wheel-back-left"},{"primitives":[{"attributes":{"POSITION":20,"NORMAL":21,"TANGENT":22,"TEXCOORD_0":23},"indices":24,"material":0}],"name":"wheel-back-right"}],"nodes":[{"mesh":0,"translation":[0,0.15,-0.025],"name":"body"},{"mesh":1,"translation":[-0.3,0.3,0.76],"name":"wheel-front-right"},{"mesh":2,"translation":[0.3,0.3,0.76],"name":"wheel-front-left"},{"mesh":3,"translation":[0.3,0.3,-0.76],"name":"wheel-back-left"},{"mesh":4,"translation":[-0.3,0.3,-0.76],"name":"wheel-back-right"}],"samplers":[{"minFilter":9987}],"textures":[{"sampler":0,"source":0,"name":"colormap"}]}