{"asset":{"generator":"glTF-Transform v4.5.0","version":"2.0","extras":{"author":"randombug (https://sketchfab.com/randombug)","license":"SKETCHFAB Standard (https://sketchfab.com/licenses)","source":"https://sketchfab.com/3d-models/wolkswagen-transporter-t3-80fa8820c9af49d69847c68396219df5","title":"Wolkswagen Transporter T3","modified":"logo removed (0 node), registration plate replaced with a fictional one (Agro Drifter)"}},"accessors":[{"type":"VEC3","componentType":5126,"count":104,"max":[-10.246563911437988,-1.6689863204956055,-7.442648410797119],"min":[-21.242088317871094,-10.689040184020996,-47.86791229248047],"bufferView":0,"byteOffset":0},{"type":"VEC3","componentType":5126,"count":104,"bufferView":0,"byteOffset":12},{"type":"VEC4","componentType":5126,"count":104,"bufferView":0,"byteOffset":24},{"type":"VEC2","componentType":5126,"count":104,"bufferView":0,"byteOffset":40},{"type":"SCALAR","componentType":5125,"count":240,"bufferView":1,"byteOffset":0},{"type":"SCALAR","componentType":5125,"count":5634,"bufferView":1,"byteOffset":960},{"type":"SCALAR","componentType":5125,"count":5634,"bufferView":1,"byteOffset":23496},{"type":"SCALAR","componentType":5125,"count":240,"bufferView":1,"byteOffset":46032},{"type":"SCALAR","componentType":5125,"count":5634,"bufferView":1,"byteOffset":46992},{"type":"SCALAR","componentType":5125,"count":5634,"bufferView":1,"byteOffset":69528},{"type":"SCALAR","componentType":5125,"count":11067,"bufferView":1,"byteOffset":92064},{"type":"SCALAR","componentType":5125,"count":696,"bufferView":1,"byteOffset":136332},{"type":"SCALAR","componentType":5125,"count":696,"bufferView":1,"byteOffset":139116},{"type":"VEC3","componentType":5126,"count":1709,"max":[-4.782655715942383,4.040355682373047,-0.6171479821205139],"min":[-25.337539672851562,-16.5145263671875,-8.073942184448242],"bufferView":2,"byteOffset":0},{"type":"VEC3","componentType":5126,"count":1709,"bufferView":2,"byteOffset":12},{"type":"VEC4","componentType":5126,"count":1709,"bufferView":2,"byteOffset":24},{"type":"VEC2","componentType":5126,"count":1709,"bufferView":2,"byteOffset":40},{"type":"VEC3","componentType":5126,"count":1709,"max":[-4.782288074493408,4.040339946746826,-46.26817321777344],"min":[-25.33717918395996,-16.514545440673828,-53.72498321533203],"bufferView":3,"byteOffset":0},{"type":"VEC3","componentType":5126,"count":1709,"bufferView":3,"byteOffset":12},{"type":"VEC4","componentType":5126,"count":1709,"bufferView":3,"byteOffset":24},{"type":"VEC2","componentType":5126,"count":1709,"bufferView":3,"byteOffset":40},{"type":"VEC3","componentType":5126,"count":125,"max":[58.05495834350586,-3.9641530513763428,-7.442659378051758],"min":[52.82795333862305,-8.393875122070312,-47.867923736572266],"bufferView":4,"byteOffset":0},{"type":"VEC3","componentType":5126,"count":125,"bufferView":4,"byteOffset":12},{"type":"VEC4","componentType":5126,"count":125,"bufferView":4,"byteOffset":24},{"type":"VEC2","componentType":5126,"count":125,"bufferView":4,"byteOffset":40},{"type":"VEC3","componentType":5126,"count":1709,"max":[65.71412658691406,4.040353298187256,-0.6171561479568481],"min":[45.15924072265625,-16.514528274536133,-8.073951721191406],"bufferView":5,"byteOffset":0},{"type":"VEC3","componentType":5126,"count":1709,"bufferView":5,"byteOffset":12},{"type":"VEC4","componentType":5126,"count":1709,"bufferView":5,"byteOffset":24},{"type":"VEC2","componentType":5126,"count":1709,"bufferView":5,"byteOffset":40},{"type":"VEC3","componentType":5126,"count":1709,"max":[65.7144775390625,4.040341377258301,-46.2681770324707],"min":[45.15959548950195,-16.51453971862793,-53.72500228881836],"bufferView":6,"byteOffset":0},{"type":"VEC3","componentType":5126,"count":1709,"bufferView":6,"byteOffset":12},{"type":"VEC4","componentType":5126,"count":1709,"bufferView":6,"byteOffset":24},{"type":"VEC2","componentType":5126,"count":1709,"bufferView":6,"byteOffset":40},{"type":"VEC3","componentType":5126,"count":3197,"max":[85.5947494506836,38.77775573730469,3.467816114425659],"min":[-41.33466339111328,-10.233681678771973,-57.658973693847656],"bufferView":7,"byteOffset":0},{"type":"VEC3","componentType":5126,"count":3197,"bufferView":7,"byteOffset":12},{"type":"VEC4","componentType":5126,"count":3197,"bufferView":7,"byteOffset":24},{"type":"VEC2","componentType":5126,"count":3197,"bufferView":7,"byteOffset":40},{"type":"VEC3","componentType":5126,"count":374,"max":[0.6131876111030579,3.2594456672668457,1.3654987812042236],"min":[-28.397308349609375,-0.6131876111030579,-3.71844350866013e-7],"bufferView":8,"byteOffset":0},{"type":"VEC3","componentType":5126,"count":374,"bufferView":8,"byteOffset":12},{"type":"VEC4","componentType":5126,"count":374,"bufferView":8,"byteOffset":24},{"type":"VEC2","componentType":5126,"count":374,"bufferView":8,"byteOffset":40},{"type":"VEC3","componentType":5126,"count":374,"max":[0.6131876111030579,3.2594456672668457,1.3654987812042236],"min":[-28.397308349609375,-0.6131876111030579,-3.71844350866013e-7],"bufferView":9,"byteOffset":0},{"type":"VEC3","componentType":5126,"count":374,"bufferView":9,"byteOffset":12},{"type":"VEC4","componentType":5126,"count":374,"bufferView":9,"byteOffset":24},{"type":"VEC2","componentType":5126,"count":374,"bufferView":9,"byteOffset":40}],"bufferViews":[{"buffer":0,"byteOffset":0,"byteLength":4992,"byteStride":48,"target":34962},{"buffer":0,"byteOffset":4992,"byteLength":141900,"target":34963},{"buffer":0,"byteOffset":146892,"byteLength":82032,"byteStride":48,"target":34962},{"buffer":0,"byteOffset":228924,"byteLength":82032,"byteStride":48,"target":34962},{"buffer":0,"byteOffset":310956,"byteLength":6000,"byteStride":48,"target":34962},{"buffer":0,"byteOffset":316956,"byteLength":82032,"byteStride":48,"target":34962},{"buffer":0,"byteOffset":398988,"byteLength":82032,"byteStride":48,"target":34962},{"buffer":0,"byteOffset":481020,"byteLength":153456,"byteStride":48,"target":34962},{"buffer":0,"byteOffset":634476,"byteLength":17952,"byteStride":48,"target":34962},{"buffer":0,"byteOffset":652428,"byteLength":17952,"byteStride":48,"target":34962}],"samplers":[{"magFilter":9729,"minFilter":9987,"wrapS":10497,"wrapT":10497}],"textures":[{"source":0,"sampler":0},{"source":2,"sampler":0},{"source":3,"sampler":0},{"source":1,"sampler":0}],"images":[{"mimeType":"image/png","uri":"textures/image-0.png"},{"mimeType":"image/png","uri":"textures/image-1.png"},{"mimeType":"image/png","uri":"textures/image-2.png"},{"mimeType":"image/png","uri":"textures/image-3.png"}],"buffers":[{"uri":"data:application/octet-stream;base64,","byteLength":670380}],"materials":[{"name":"01_-_Default","doubleSided":true,"pbrMetallicRoughness":{"metallicFactor":0,"baseColorTexture":{"index":0},"metallicRoughnessTexture":{"index":3}},"emissiveFactor":[1,1,1],"emissiveTexture":{"index":1},"normalTexture":{"index":2}}],"meshes":[{"name":"BW_01 - Default_0","primitives":[{"attributes":{"NORMAL":1,"POSITION":0,"TANGENT":2,"TEXCOORD_0":3},"mode":4,"material":0,"indices":4}]},{"name":"WBL_01 - Default_0","primitives":[{"attributes":{"NORMAL":14,"POSITION":13,"TANGENT":15,"TEXCOORD_0":16},"mode":4,"material":0,"indices":5}]},{"name":"WBR_01 - Default_0","primitives":[{"attributes":{"NORMAL":18,"POSITION":17,"TANGENT":19,"TEXCOORD_0":20},"mode":4,"material":0,"indices":6}]},{"name":"FW_01 - Default_0","primitives":[{"attributes":{"NORMAL":22,"POSITION":21,"TANGENT":23,"TEXCOORD_0":24},"mode":4,"material":0,"indices":7}]},{"name":"WFR_01 - Default_0","primitives":[{"attributes":{"NORMAL":26,"POSITION":25,"TANGENT":27,"TEXCOORD_0":28},"mode":4,"material":0,"indices":8}]},{"name":"WFL_01 - Default_0","primitives":[{"attributes":{"NORMAL":30,"POSITION":29,"TANGENT":31,"TEXCOORD_0":32},"mode":4,"material":0,"indices":9}]},{"name":"BODY_01 - Default_0","primitives":[{"attributes":{"NORMAL":34,"POSITION":33,"TANGENT":35,"TEXCOORD_0":36},"mode":4,"material":0,"indices":10}]},{"name":"dvornik_R_01 - Default_0","primitives":[{"attributes":{"NORMAL":38,"POSITION":37,"TANGENT":39,"TEXCOORD_0":40},"mode":4,"material":0,"indices":11}]},{"name":"dvornik_l_01 - Default_0","primitives":[{"attributes":{"NORMAL":42,"POSITION":41,"TANGENT":43,"TEXCOORD_0":44},"mode":4,"material":0,"indices":12}]}],"nodes":[{"name":"Sketchfab_model","rotation":[-0.7071067811865475,0,0,0.7071067811865476],"scale":[2.3011252880096436,2.3011252880096436,2.3011252880096436],"children":[1]},{"name":"4c25066fa092486797319f6200c6b20c.fbx","rotation":[0.7071067811865475,0,0,0.7071067811865476],"scale":[0.009999999776482582,0.009999999776482582,0.009999999776482582],"children":[2]},{"name":"RootNode","children":[3]},{"name":"ROOT","children":[4,13,22]},{"name":"BW","translation":[0.462615966796875,14.599647521972656,-53.663780212402344],"rotation":[-0.7071068387877061,0,0,0.7071067235853843],"scale":[1.4429709911346436,1.4429709911346436,1.4429709911346436],"children":[5,7,10]},{"name":"Object_5","translation":[-27.715551376342773,-15.059721946716309,6.2370781898498535],"rotation":[-0.5000000665790227,0.5000000665790229,0.4999999334209684,-0.4999999334209684],"children":[6]},{"name":"BW_01 - Default_0","mesh":0},{"name":"WBL","translation":[-23.370004653930664,0.000396728515625,-0.0000019073486328125],"children":[8]},{"name":"Object_8","translation":[-4.345549583435059,-15.060094833374023,6.237081050872803],"rotation":[-0.5000000665790095,0.50000013315805,0.4999999334209551,-0.49999986684194125],"children":[9]},{"name":"WBL_01 - Default_0","mesh":1},{"name":"WBR","translation":[22.28102684020996,0,0.000003814697265625],"children":[11]},{"name":"Object_11","translation":[-49.996578216552734,-15.059721946716309,6.237083435058594],"rotation":[-0.5000000665790095,0.50000013315805,0.4999999334209551,-0.49999986684194125],"children":[12]},{"name":"WBR_01 - Default_0","mesh":2},{"name":"FW","translation":[0.37564849853515625,14.599658966064453,48.06103515625],"rotation":[-0.7071068387877061,0,0,0.7071067235853843],"scale":[1.4429709911346436,1.4429709911346436,1.4429709911346436],"children":[14,16,19]},{"name":"Object_14","translation":[-27.655282974243164,55.437049865722656,6.237076759338379],"rotation":[-0.5000000665790095,0.50000013315805,0.4999999334209551,-0.49999986684194125],"children":[15]},{"name":"FW_01 - Default_0","mesh":3},{"name":"WFR","translation":[-23.30974006652832,0.0003662109375,-0.000003814697265625],"children":[17]},{"name":"Object_17","translation":[-4.345542907714844,55.43667221069336,6.237090587615967],"rotation":[-0.5000000665790095,0.50000013315805,0.4999999334209551,-0.49999986684194125],"children":[18]},{"name":"WFR_01 - Default_0","mesh":4},{"name":"WFL","translation":[22.341293334960938,0,0],"children":[20]},{"name":"Object_20","translation":[-49.996578216552734,55.437042236328125,6.237083435058594],"rotation":[-0.5000000665790095,0.50000013315805,0.4999999334209551,-0.49999986684194125],"children":[21]},{"name":"WFL_01 - Default_0","mesh":5},{"name":"BODY","translation":[-0.4320030212402344,13.191543579101562,-0.0000019073486328125],"rotation":[-0.7071068387877061,0,0,0.7071067235853843],"scale":[1.4429709911346436,1.4429709911346436,1.4429709911346436],"children":[23,25,27]},{"name":"Object_23","translation":[-27.095569610595703,22.130050659179688,7.212917327880859],"rotation":[-0.5000000665790095,0.50000013315805,0.4999999334209551,-0.49999986684194125],"children":[24]},{"name":"BODY_01 - Default_0","mesh":6},{"name":"dvornik_R","translation":[-3.5473594665527344,-57.314632415771484,29.443918228149414],"rotation":[0.38268353069284355,0,0,0.9238794917825914],"scale":[0.6930149793624878,0.6930149793624879,0.6930149793624879],"children":[26]},{"name":"dvornik_R_01 - Default_0","mesh":7},{"name":"dvornik_l","translation":[19.159528732299805,-57.02914047241211,29.20113182067871],"rotation":[0.38261384412885746,0.017629641922219517,0.007302436799079698,0.9237112733010397],"scale":[0.6930149793624878,0.6930149793624878,0.6930149793624878],"children":[28]},{"name":"dvornik_l_01 - Default_0","mesh":8}],"scenes":[{"name":"Sketchfab_Scene","nodes":[0]}],"scene":0}