{"asset":{"generator":"UnityGLTF","version":"2.0"},"extensionsUsed":["KHR_texture_transform"],"scene":0,"scenes":[{"nodes":[0],"name":"building-type-m"}],"accessors":[{"bufferView":0,"componentType":5126,"count":1842,"type":"VEC3","max":[0.7140000462532043,0.7374999523162842,0.7139999866485596],"min":[-0.7140000462532043,0,-0.7140000462532043]},{"bufferView":1,"componentType":5126,"count":1842,"type":"VEC3","max":[1.0000001192092896,1,1.0000001192092896],"min":[-1,-1,-1.0000001192092896]},{"bufferView":2,"componentType":5126,"count":1842,"type":"VEC4","max":[1.0000001192092896,0.9491893649101257,1.0000001192092896,1],"min":[-1.0000001192092896,-0.9491893649101257,-1.0000001192092896,1]},{"bufferView":3,"componentType":5126,"count":1842,"type":"VEC2","max":[0.71875,0.9750000238418579],"min":[0.09375,0.2749999761581421]},{"bufferView":4,"componentType":5123,"count":3336,"type":"SCALAR","max":[1841],"min":[0]}],"buffers":[{"byteLength":95088,"uri":"data:application/octet-stream;base64,"}],"bufferViews":[{"buffer":0,"byteLength":22104,"byteStride":12,"target":34962},{"buffer":0,"byteOffset":22104,"byteLength":22104,"byteStride":12,"target":34962},{"buffer":0,"byteOffset":44208,"byteLength":29472,"target":34962},{"buffer":0,"byteOffset":73680,"byteLength":14736,"target":34962},{"buffer":0,"byteOffset":88416,"byteLength":6672,"target":34963}],"images":[{"uri":"Textures/colormap.png","name":"colormap"}],"materials":[{"pbrMetallicRoughness":{"baseColorTexture":{"index":0,"extensions":{"KHR_texture_transform":{"texCoord":0}}},"metallicFactor":0},"doubleSided":true,"name":"colormap"}],"meshes":[{"primitives":[{"attributes":{"POSITION":0,"NORMAL":1,"TANGENT":2,"TEXCOORD_0":3},"indices":4,"material":0}],"name":"building-type-m"}],"nodes":[{"mesh":0,"name":"building-type-m"}],"samplers":[{"magFilter":9728,"minFilter":9984}],"textures":[{"sampler":0,"source":0,"name":"colormap"}]}