{"asset":{"generator":"UnityGLTF","version":"2.0"},"extensionsUsed":["KHR_texture_transform"],"scene":0,"scenes":[{"nodes":[0],"name":"building-type-c"}],"accessors":[{"bufferView":0,"componentType":5126,"count":1886,"type":"VEC3","max":[0.6431901454925537,1.033540964126587,0.5140689015388489],"min":[-0.6431901454925537,0,-0.5140689015388489]},{"bufferView":1,"componentType":5126,"count":1886,"type":"VEC3","max":[1.0000001192092896,1,1.0000001192092896],"min":[-1,-1,-1]},{"bufferView":2,"componentType":5126,"count":1886,"type":"VEC4","max":[1.0000001192092896,0.70710688829422,1.0000001192092896,1],"min":[-1.0000001192092896,-0.70710688829422,-1.0000001192092896,1]},{"bufferView":3,"componentType":5126,"count":1886,"type":"VEC2","max":[0.71875,0.9750000238418579],"min":[0.09375,0.2749999761581421]},{"bufferView":4,"componentType":5123,"count":3588,"type":"SCALAR","max":[1885],"min":[0]}],"buffers":[{"byteLength":97704,"uri":"data:application/octet-stream;base64,"}],"bufferViews":[{"buffer":0,"byteLength":22632,"byteStride":12,"target":34962},{"buffer":0,"byteOffset":22632,"byteLength":22632,"byteStride":12,"target":34962},{"buffer":0,"byteOffset":45264,"byteLength":30176,"target":34962},{"buffer":0,"byteOffset":75440,"byteLength":15088,"target":34962},{"buffer":0,"byteOffset":90528,"byteLength":7176,"target":34963}],"images":[{"uri":"Textures/colormap.png","name":"colormap"}],"materials":[{"pbrMetallicRoughness":{"baseColorTexture":{"index":0,"extensions":{"KHR_texture_transform":{"texCoord":0}}},"metallicFactor":0},"doubleSided":true,"name":"colormap"}],"meshes":[{"primitives":[{"attributes":{"POSITION":0,"NORMAL":1,"TANGENT":2,"TEXCOORD_0":3},"indices":4,"material":0}],"name":"building-type-c"}],"nodes":[{"mesh":0,"name":"building-type-c"}],"samplers":[{"magFilter":9728,"minFilter":9984}],"textures":[{"sampler":0,"source":0,"name":"colormap"}]}