{"asset":{"generator":"UnityGLTF","version":"2.0"},"extensionsUsed":["KHR_texture_transform"],"scene":0,"scenes":[{"nodes":[0],"name":"fence-1x3"}],"accessors":[{"bufferView":0,"componentType":5126,"count":376,"type":"VEC3","max":[0.6375000476837158,0.26999998092651367,0.23750001192092896],"min":[-0.6375000476837158,-3.25311338197215e-14,-0.19999998807907104]},{"bufferView":1,"componentType":5126,"count":376,"type":"VEC3","max":[1,1,1],"min":[-1,-1,-1]},{"bufferView":2,"componentType":5126,"count":376,"type":"VEC4","max":[1,0,1,1],"min":[-1,0,-1,1]},{"bufferView":3,"componentType":5126,"count":376,"type":"VEC2","max":[0.59375,0.7250000238418579],"min":[0.59375,0.5249999761581421]},{"bufferView":4,"componentType":5123,"count":612,"type":"SCALAR","max":[375],"min":[0]}],"buffers":[{"byteLength":19272,"uri":"data:application/octet-stream;base64,"}],"bufferViews":[{"buffer":0,"byteLength":4512,"byteStride":12,"target":34962},{"buffer":0,"byteOffset":4512,"byteLength":4512,"byteStride":12,"target":34962},{"buffer":0,"byteOffset":9024,"byteLength":6016,"target":34962},{"buffer":0,"byteOffset":15040,"byteLength":3008,"target":34962},{"buffer":0,"byteOffset":18048,"byteLength":1224,"target":34963}],"images":[{"uri":"Textures/colormap.png","name":"colormap"}],"materials":[{"pbrMetallicRoughness":{"baseColorTexture":{"index":0,"extensions":{"KHR_texture_transform":{"texCoord":0}}},"metallicFactor":0},"doubleSided":true,"name":"colormap"}],"meshes":[{"primitives":[{"attributes":{"POSITION":0,"NORMAL":1,"TANGENT":2,"TEXCOORD_0":3},"indices":4,"material":0}],"name":"fence-1x3"}],"nodes":[{"mesh":0,"name":"fence-1x3"}],"samplers":[{"magFilter":9728,"minFilter":9984}],"textures":[{"sampler":0,"source":0,"name":"colormap"}]}