{"asset":{"generator":"UnityGLTF","version":"2.0"},"extensionsUsed":["KHR_texture_transform"],"scene":0,"scenes":[{"nodes":[0],"name":"fence-low"}],"accessors":[{"bufferView":0,"componentType":5126,"count":328,"type":"VEC3","max":[0.6375000476837158,0.17000000178813934,0.3999999761581421],"min":[-0.6375000476837158,0,-0.4375]},{"bufferView":1,"componentType":5126,"count":328,"type":"VEC3","max":[1,1,1],"min":[-1,-1,-1]},{"bufferView":2,"componentType":5126,"count":328,"type":"VEC4","max":[1,0,1,1],"min":[-1,0,-1,1]},{"bufferView":3,"componentType":5126,"count":328,"type":"VEC2","max":[0.59375,0.7250000238418579],"min":[0.59375,0.5249999761581421]},{"bufferView":4,"componentType":5123,"count":540,"type":"SCALAR","max":[327],"min":[0]}],"buffers":[{"byteLength":16824,"uri":"data:application/octet-stream;base64,"}],"bufferViews":[{"buffer":0,"byteLength":3936,"byteStride":12,"target":34962},{"buffer":0,"byteOffset":3936,"byteLength":3936,"byteStride":12,"target":34962},{"buffer":0,"byteOffset":7872,"byteLength":5248,"target":34962},{"buffer":0,"byteOffset":13120,"byteLength":2624,"target":34962},{"buffer":0,"byteOffset":15744,"byteLength":1080,"target":34963}],"images":[{"uri":"Textures/colormap.png","name":"colormap"}],"materials":[{"pbrMetallicRoughness":{"baseColorTexture":{"index":0,"extensions":{"KHR_texture_transform":{"texCoord":0}}},"metallicFactor":0},"doubleSided":true,"name":"colormap"}],"meshes":[{"primitives":[{"attributes":{"POSITION":0,"NORMAL":1,"TANGENT":2,"TEXCOORD_0":3},"indices":4,"material":0}],"name":"fence-low"}],"nodes":[{"mesh":0,"name":"fence-low"}],"samplers":[{"magFilter":9728,"minFilter":9984}],"textures":[{"sampler":0,"source":0,"name":"colormap"}]}