{"asset":{"generator":"UnityGLTF","version":"2.0"},"extensionsUsed":["KHR_texture_transform"],"scene":0,"scenes":[{"nodes":[0],"name":"path-long"}],"accessors":[{"bufferView":0,"componentType":5126,"count":24,"type":"VEC3","max":[0.10000000149011612,0.009999999776482582,0.20000000298023224],"min":[-0.10000000149011612,0,-0.20000000298023224]},{"bufferView":1,"componentType":5126,"count":24,"type":"VEC3","max":[0.3162277638912201,1,1],"min":[-0.3162277638912201,-1,-1]},{"bufferView":2,"componentType":5126,"count":24,"type":"VEC4","max":[1,0,1,1],"min":[-1,0,-1,1]},{"bufferView":3,"componentType":5126,"count":24,"type":"VEC2","max":[0.59375,0.675000011920929],"min":[0.09375,0.574999988079071]},{"bufferView":4,"componentType":5121,"count":36,"type":"SCALAR","max":[23],"min":[0]}],"buffers":[{"byteLength":1188,"uri":"data:application/octet-stream;base64,"}],"bufferViews":[{"buffer":0,"byteLength":288,"byteStride":12,"target":34962},{"buffer":0,"byteOffset":288,"byteLength":288,"byteStride":12,"target":34962},{"buffer":0,"byteOffset":576,"byteLength":384,"target":34962},{"buffer":0,"byteOffset":960,"byteLength":192,"target":34962},{"buffer":0,"byteOffset":1152,"byteLength":36,"target":34963}],"images":[{"uri":"Textures/colormap.png","name":"colormap"}],"materials":[{"pbrMetallicRoughness":{"baseColorTexture":{"index":0,"extensions":{"KHR_texture_transform":{"texCoord":0}}},"metallicFactor":0},"doubleSided":true,"name":"colormap"}],"meshes":[{"primitives":[{"attributes":{"POSITION":0,"NORMAL":1,"TANGENT":2,"TEXCOORD_0":3},"indices":4,"material":0}],"name":"path-long"}],"nodes":[{"mesh":0,"name":"path-long"}],"samplers":[{"magFilter":9728,"minFilter":9984}],"textures":[{"sampler":0,"source":0,"name":"colormap"}]}