{"asset":{"generator":"UnityGLTF","version":"2.0"},"extensionsUsed":["KHR_texture_transform"],"scene":0,"scenes":[{"nodes":[0],"name":"planter"}],"accessors":[{"bufferView":0,"componentType":5126,"count":360,"type":"VEC3","max":[0.20000000298023224,0.17710953950881958,0.1494266241788864],"min":[-0.20000000298023224,0,-0.15057337284088135]},{"bufferView":1,"componentType":5126,"count":360,"type":"VEC3","max":[0.9990627765655518,1,0.9983380436897278],"min":[-0.9990627765655518,-1,-0.9983380436897278]},{"bufferView":2,"componentType":5126,"count":360,"type":"VEC4","max":[1,0.5565847158432007,0.9997058510780334,1],"min":[-1,-0.5565847158432007,-0.9999902844429016,1]},{"bufferView":3,"componentType":5126,"count":360,"type":"VEC2","max":[0.59375,0.9750000238418579],"min":[0.09375,0.5249999761581421]},{"bufferView":4,"componentType":5123,"count":612,"type":"SCALAR","max":[359],"min":[0]}],"buffers":[{"byteLength":18504,"uri":"data:application/octet-stream;base64,"}],"bufferViews":[{"buffer":0,"byteLength":4320,"byteStride":12,"target":34962},{"buffer":0,"byteOffset":4320,"byteLength":4320,"byteStride":12,"target":34962},{"buffer":0,"byteOffset":8640,"byteLength":5760,"target":34962},{"buffer":0,"byteOffset":14400,"byteLength":2880,"target":34962},{"buffer":0,"byteOffset":17280,"byteLength":1224,"target":34963}],"images":[{"uri":"Textures/colormap.png","name":"colormap"}],"materials":[{"pbrMetallicRoughness":{"baseColorTexture":{"index":0,"extensions":{"KHR_texture_transform":{"texCoord":0}}},"metallicFactor":0},"doubleSided":true,"name":"colormap"}],"meshes":[{"primitives":[{"attributes":{"POSITION":0,"NORMAL":1,"TANGENT":2,"TEXCOORD_0":3},"indices":4,"material":0}],"name":"planter"}],"nodes":[{"mesh":0,"name":"planter"}],"samplers":[{"magFilter":9728,"minFilter":9984}],"textures":[{"sampler":0,"source":0,"name":"colormap"}]}