{"asset":{"generator":"UnityGLTF","version":"2.0"},"extensionsUsed":["KHR_texture_transform"],"scene":0,"scenes":[{"nodes":[0],"name":"tree-small"}],"accessors":[{"bufferView":0,"componentType":5126,"count":80,"type":"VEC3","max":[0.10522209107875824,0.5670000314712524,0.12149999290704727],"min":[-0.10522209107875824,0,-0.12149999290704727]},{"bufferView":1,"componentType":5126,"count":80,"type":"VEC3","max":[0.9973992109298706,0.6962605118751526,0.9976862668991089],"min":[-0.9973992109298706,-1,-0.9976862668991089]},{"bufferView":2,"componentType":5126,"count":80,"type":"VEC4","max":[1,0.5525381565093994,1,1],"min":[-1,-0.5525381565093994,-1,1]},{"bufferView":3,"componentType":5126,"count":80,"type":"VEC2","max":[0.59375,0.9750000238418579],"min":[0.21875,0.5249999761581421]},{"bufferView":4,"componentType":5121,"count":126,"type":"SCALAR","max":[79],"min":[0]}],"buffers":[{"byteLength":3968,"uri":"data:application/octet-stream;base64,"}],"bufferViews":[{"buffer":0,"byteLength":960,"byteStride":12,"target":34962},{"buffer":0,"byteOffset":960,"byteLength":960,"byteStride":12,"target":34962},{"buffer":0,"byteOffset":1920,"byteLength":1280,"target":34962},{"buffer":0,"byteOffset":3200,"byteLength":640,"target":34962},{"buffer":0,"byteOffset":3840,"byteLength":128,"target":34963}],"images":[{"uri":"Textures/colormap.png","name":"colormap"}],"materials":[{"pbrMetallicRoughness":{"baseColorTexture":{"index":0,"extensions":{"KHR_texture_transform":{"texCoord":0}}},"metallicFactor":0},"doubleSided":true,"name":"colormap"}],"meshes":[{"primitives":[{"attributes":{"POSITION":0,"NORMAL":1,"TANGENT":2,"TEXCOORD_0":3},"indices":4,"material":0}],"name":"tree-small"}],"nodes":[{"mesh":0,"name":"tree-small"}],"samplers":[{"magFilter":9728,"minFilter":9984}],"textures":[{"sampler":0,"source":0,"name":"colormap"}]}