{"asset":{"generator":"UnityGLTF","version":"2.0"},"extensionsUsed":["KHR_texture_transform"],"scene":0,"scenes":[{"nodes":[0],"name":"building-a"}],"accessors":[{"bufferView":0,"componentType":5126,"count":2074,"type":"VEC3","max":[0.4417939782142639,1.2929999828338623,0.4700000286102295],"min":[-0.44179391860961914,0,-0.4699999690055847]},{"bufferView":1,"componentType":5126,"count":2074,"type":"VEC3","max":[1.0000001192092896,1,1.0000001192092896],"min":[-1.0000001192092896,-1,-1]},{"bufferView":2,"componentType":5126,"count":2074,"type":"VEC4","max":[1.0000001192092896,0.70710688829422,1.0000001192092896,1],"min":[-1.0000001192092896,-0.70710688829422,-1.0000001192092896,-1]},{"bufferView":3,"componentType":5126,"count":2074,"type":"VEC2","max":[0.71875,0.7250000238418579],"min":[0.09375,0.2749999761581421]},{"bufferView":4,"componentType":5123,"count":3756,"type":"SCALAR","max":[2073],"min":[0]}],"buffers":[{"byteLength":107064,"uri":"data:application/octet-stream;base64,"}],"bufferViews":[{"buffer":0,"byteLength":24888,"byteStride":12,"target":34962},{"buffer":0,"byteOffset":24888,"byteLength":24888,"byteStride":12,"target":34962},{"buffer":0,"byteOffset":49776,"byteLength":33184,"target":34962},{"buffer":0,"byteOffset":82960,"byteLength":16592,"target":34962},{"buffer":0,"byteOffset":99552,"byteLength":7512,"target":34963}],"images":[{"uri":"Textures/colormap.png","name":"colormap"}],"materials":[{"pbrMetallicRoughness":{"baseColorTexture":{"index":0,"extensions":{"KHR_texture_transform":{"texCoord":0}}},"metallicFactor":0},"doubleSided":true,"name":"colormap"}],"meshes":[{"primitives":[{"attributes":{"POSITION":0,"NORMAL":1,"TANGENT":2,"TEXCOORD_0":3},"indices":4,"material":0}],"name":"building-a"}],"nodes":[{"mesh":0,"name":"building-a"}],"samplers":[{"minFilter":9987}],"textures":[{"sampler":0,"source":0,"name":"colormap"}]}