{"asset":{"generator":"UnityGLTF","version":"2.0"},"extensionsUsed":["KHR_texture_transform"],"scene":0,"scenes":[{"nodes":[0],"name":"building-g"}],"accessors":[{"bufferView":0,"componentType":5126,"count":3176,"type":"VEC3","max":[0.48500001430511475,1.693000078201294,0.4610002040863037],"min":[-0.48500001430511475,0,-0.460999995470047]},{"bufferView":1,"componentType":5126,"count":3176,"type":"VEC3","max":[1,1,1.0000001192092896],"min":[-1.0000001192092896,-1,-1.0000001192092896]},{"bufferView":2,"componentType":5126,"count":3176,"type":"VEC4","max":[1.0000001192092896,0.70710688829422,1.0000001192092896,1],"min":[-1.0000001192092896,-0.70710688829422,-1.0000001192092896,-1]},{"bufferView":3,"componentType":5126,"count":3176,"type":"VEC2","max":[0.71875,0.7250000238418579],"min":[0.09375,0.2749999761581421]},{"bufferView":4,"componentType":5123,"count":6018,"type":"SCALAR","max":[3175],"min":[0]}],"buffers":[{"byteLength":164484,"uri":"data:application/octet-stream;base64,"}],"bufferViews":[{"buffer":0,"byteLength":38112,"byteStride":12,"target":34962},{"buffer":0,"byteOffset":38112,"byteLength":38112,"byteStride":12,"target":34962},{"buffer":0,"byteOffset":76224,"byteLength":50816,"target":34962},{"buffer":0,"byteOffset":127040,"byteLength":25408,"target":34962},{"buffer":0,"byteOffset":152448,"byteLength":12036,"target":34963}],"images":[{"uri":"Textures/colormap.png","name":"colormap"}],"materials":[{"pbrMetallicRoughness":{"baseColorTexture":{"index":0,"extensions":{"KHR_texture_transform":{"texCoord":0}}},"metallicFactor":0},"doubleSided":true,"name":"colormap"}],"meshes":[{"primitives":[{"attributes":{"POSITION":0,"NORMAL":1,"TANGENT":2,"TEXCOORD_0":3},"indices":4,"material":0}],"name":"building-g"}],"nodes":[{"mesh":0,"name":"building-g"}],"samplers":[{"minFilter":9987}],"textures":[{"sampler":0,"source":0,"name":"colormap"}]}