{"asset":{"generator":"UnityGLTF","version":"2.0"},"extensionsUsed":["KHR_texture_transform"],"scene":0,"scenes":[{"nodes":[0],"name":"building-h"}],"accessors":[{"bufferView":0,"componentType":5126,"count":2428,"type":"VEC3","max":[0.44179391860961914,1.2929999828338623,0.5039454698562622],"min":[-0.44179391860961914,0,-0.5039456486701965]},{"bufferView":1,"componentType":5126,"count":2428,"type":"VEC3","max":[1,1,1],"min":[-1,-1,-1]},{"bufferView":2,"componentType":5126,"count":2428,"type":"VEC4","max":[1,0.70710688829422,1,1],"min":[-1,-0.70710688829422,-1,1]},{"bufferView":3,"componentType":5126,"count":2428,"type":"VEC2","max":[0.71875,0.7250000238418579],"min":[0.09375,0.2749999761581421]},{"bufferView":4,"componentType":5123,"count":4536,"type":"SCALAR","max":[2427],"min":[0]}],"buffers":[{"byteLength":125616,"uri":"data:application/octet-stream;base64,"}],"bufferViews":[{"buffer":0,"byteLength":29136,"byteStride":12,"target":34962},{"buffer":0,"byteOffset":29136,"byteLength":29136,"byteStride":12,"target":34962},{"buffer":0,"byteOffset":58272,"byteLength":38848,"target":34962},{"buffer":0,"byteOffset":97120,"byteLength":19424,"target":34962},{"buffer":0,"byteOffset":116544,"byteLength":9072,"target":34963}],"images":[{"uri":"Textures/colormap.png","name":"colormap"}],"materials":[{"pbrMetallicRoughness":{"baseColorTexture":{"index":0,"extensions":{"KHR_texture_transform":{"texCoord":0}}},"metallicFactor":0},"doubleSided":true,"name":"colormap"}],"meshes":[{"primitives":[{"attributes":{"POSITION":0,"NORMAL":1,"TANGENT":2,"TEXCOORD_0":3},"indices":4,"material":0}],"name":"building-h"}],"nodes":[{"mesh":0,"name":"building-h"}],"samplers":[{"minFilter":9987}],"textures":[{"sampler":0,"source":0,"name":"colormap"}]}