{"asset":{"generator":"UnityGLTF","version":"2.0"},"extensionsUsed":["KHR_texture_transform"],"scene":0,"scenes":[{"nodes":[0],"name":"building-e"}],"accessors":[{"bufferView":0,"componentType":5126,"count":2443,"type":"VEC3","max":[0.8200000524520874,0.8930000066757202,0.5039458870887756],"min":[-0.8199999928474426,0,-0.5039456486701965]},{"bufferView":1,"componentType":5126,"count":2443,"type":"VEC3","max":[1.0000001192092896,1,1.0000001192092896],"min":[-1.0000001192092896,-1,-1.0000001192092896]},{"bufferView":2,"componentType":5126,"count":2443,"type":"VEC4","max":[1.0000001192092896,0.70710688829422,1.0000001192092896,1],"min":[-1.0000001192092896,-0.70710688829422,-1.0000001192092896,1]},{"bufferView":3,"componentType":5126,"count":2443,"type":"VEC2","max":[0.71875,0.7250000238418579],"min":[0.09375,0.2749999761581421]},{"bufferView":4,"componentType":5123,"count":4527,"type":"SCALAR","max":[2442],"min":[0]}],"buffers":[{"byteLength":126320,"uri":"data:application/octet-stream;base64,"}],"bufferViews":[{"buffer":0,"byteLength":29316,"byteStride":12,"target":34962},{"buffer":0,"byteOffset":29316,"byteLength":29316,"byteStride":12,"target":34962},{"buffer":0,"byteOffset":58632,"byteLength":39088,"target":34962},{"buffer":0,"byteOffset":97720,"byteLength":19544,"target":34962},{"buffer":0,"byteOffset":117264,"byteLength":9056,"target":34963}],"images":[{"uri":"Textures/colormap.png","name":"colormap"}],"materials":[{"pbrMetallicRoughness":{"baseColorTexture":{"index":0,"extensions":{"KHR_texture_transform":{"texCoord":0}}},"metallicFactor":0},"doubleSided":true,"name":"colormap"}],"meshes":[{"primitives":[{"attributes":{"POSITION":0,"NORMAL":1,"TANGENT":2,"TEXCOORD_0":3},"indices":4,"material":0}],"name":"building-e"}],"nodes":[{"mesh":0,"name":"building-e"}],"samplers":[{"minFilter":9987}],"textures":[{"sampler":0,"source":0,"name":"colormap"}]}