{"asset":{"generator":"UnityGLTF","version":"2.0"},"extensionsUsed":["KHR_texture_transform"],"scene":0,"scenes":[{"nodes":[0],"name":"building-b"}],"accessors":[{"bufferView":0,"componentType":5126,"count":2018,"type":"VEC3","max":[0.4850000739097595,1.2929999828338623,0.4700000286102295],"min":[-0.48500001430511475,0,-0.4699999690055847]},{"bufferView":1,"componentType":5126,"count":2018,"type":"VEC3","max":[1.0000001192092896,1,1.0000001192092896],"min":[-1.0000001192092896,-1,-1.0000001192092896]},{"bufferView":2,"componentType":5126,"count":2018,"type":"VEC4","max":[1.0000001192092896,0.70710688829422,1.0000001192092896,1],"min":[-1.0000001192092896,-0.70710688829422,-1.0000001192092896,1]},{"bufferView":3,"componentType":5126,"count":2018,"type":"VEC2","max":[0.71875,0.7250000238418579],"min":[0.09375,0.35500001907348633]},{"bufferView":4,"componentType":5123,"count":3828,"type":"SCALAR","max":[2017],"min":[0]}],"buffers":[{"byteLength":104520,"uri":"data:application/octet-stream;base64,"}],"bufferViews":[{"buffer":0,"byteLength":24216,"byteStride":12,"target":34962},{"buffer":0,"byteOffset":24216,"byteLength":24216,"byteStride":12,"target":34962},{"buffer":0,"byteOffset":48432,"byteLength":32288,"target":34962},{"buffer":0,"byteOffset":80720,"byteLength":16144,"target":34962},{"buffer":0,"byteOffset":96864,"byteLength":7656,"target":34963}],"images":[{"uri":"Textures/colormap.png","name":"colormap"}],"materials":[{"pbrMetallicRoughness":{"baseColorTexture":{"index":0,"extensions":{"KHR_texture_transform":{"texCoord":0}}},"metallicFactor":0},"doubleSided":true,"name":"colormap"}],"meshes":[{"primitives":[{"attributes":{"POSITION":0,"NORMAL":1,"TANGENT":2,"TEXCOORD_0":3},"indices":4,"material":0}],"name":"building-b"}],"nodes":[{"mesh":0,"name":"building-b"}],"samplers":[{"minFilter":9987}],"textures":[{"sampler":0,"source":0,"name":"colormap"}]}