{"asset":{"generator":"UnityGLTF","version":"2.0"},"extensionsUsed":["KHR_texture_transform"],"scene":0,"scenes":[{"nodes":[0],"name":"building-n"}],"accessors":[{"bufferView":0,"componentType":5126,"count":6526,"type":"VEC3","max":[1.160000205039978,2.4800000190734863,0.9100000262260437],"min":[-1.1600000858306885,0,-0.9100000262260437]},{"bufferView":1,"componentType":5126,"count":6526,"type":"VEC3","max":[1.0000001192092896,1,1.000000238418579],"min":[-1.0000001192092896,-1,-1.0000001192092896]},{"bufferView":2,"componentType":5126,"count":6526,"type":"VEC4","max":[1.000000238418579,0.70710688829422,1.000000238418579,1],"min":[-1.000000238418579,-0.70710688829422,-1.000000238418579,1]},{"bufferView":3,"componentType":5126,"count":6526,"type":"VEC2","max":[0.71875,0.7250000238418579],"min":[0.09375,0.319272518157959]},{"bufferView":4,"componentType":5123,"count":13050,"type":"SCALAR","max":[6525],"min":[0]}],"buffers":[{"byteLength":339348,"uri":"data:application/octet-stream;base64,"}],"bufferViews":[{"buffer":0,"byteLength":78312,"byteStride":12,"target":34962},{"buffer":0,"byteOffset":78312,"byteLength":78312,"byteStride":12,"target":34962},{"buffer":0,"byteOffset":156624,"byteLength":104416,"target":34962},{"buffer":0,"byteOffset":261040,"byteLength":52208,"target":34962},{"buffer":0,"byteOffset":313248,"byteLength":26100,"target":34963}],"images":[{"uri":"Textures/colormap.png","name":"colormap"}],"materials":[{"pbrMetallicRoughness":{"baseColorTexture":{"index":0,"extensions":{"KHR_texture_transform":{"texCoord":0}}},"metallicFactor":0},"doubleSided":true,"name":"colormap"}],"meshes":[{"primitives":[{"attributes":{"POSITION":0,"NORMAL":1,"TANGENT":2,"TEXCOORD_0":3},"indices":4,"material":0}],"name":"building-n"}],"nodes":[{"mesh":0,"name":"building-n"}],"samplers":[{"minFilter":9987}],"textures":[{"sampler":0,"source":0,"name":"colormap"}]}