{"asset":{"generator":"UnityGLTF","version":"2.0"},"extensionsUsed":["KHR_texture_transform"],"scene":0,"scenes":[{"nodes":[0],"name":"building-j"}],"accessors":[{"bufferView":0,"componentType":5126,"count":8485,"type":"VEC3","max":[1.0417940616607666,1.693000078201294,0.6700000166893005],"min":[-1.041793942451477,0,-0.6700000166893005]},{"bufferView":1,"componentType":5126,"count":8485,"type":"VEC3","max":[1.0000001192092896,1,1.0000001192092896],"min":[-1.0000001192092896,-1,-1.0000001192092896]},{"bufferView":2,"componentType":5126,"count":8485,"type":"VEC4","max":[1.0000001192092896,0.70710688829422,1.0000001192092896,1],"min":[-1.0000001192092896,-0.70710688829422,-1.0000001192092896,-1]},{"bufferView":3,"componentType":5126,"count":8485,"type":"VEC2","max":[0.71875,0.9750000238418579],"min":[0.09375,0.4009259343147278]},{"bufferView":4,"componentType":5123,"count":15738,"type":"SCALAR","max":[8484],"min":[0]}],"buffers":[{"byteLength":438756,"uri":"data:application/octet-stream;base64,"}],"bufferViews":[{"buffer":0,"byteLength":101820,"byteStride":12,"target":34962},{"buffer":0,"byteOffset":101820,"byteLength":101820,"byteStride":12,"target":34962},{"buffer":0,"byteOffset":203640,"byteLength":135760,"target":34962},{"buffer":0,"byteOffset":339400,"byteLength":67880,"target":34962},{"buffer":0,"byteOffset":407280,"byteLength":31476,"target":34963}],"images":[{"uri":"Textures/colormap.png","name":"colormap"}],"materials":[{"pbrMetallicRoughness":{"baseColorTexture":{"index":0,"extensions":{"KHR_texture_transform":{"texCoord":0}}},"metallicFactor":0},"doubleSided":true,"name":"colormap"}],"meshes":[{"primitives":[{"attributes":{"POSITION":0,"NORMAL":1,"TANGENT":2,"TEXCOORD_0":3},"indices":4,"material":0}],"name":"building-j"}],"nodes":[{"mesh":0,"name":"building-j"}],"samplers":[{"minFilter":9987}],"textures":[{"sampler":0,"source":0,"name":"colormap"}]}