{"asset":{"generator":"UnityGLTF","version":"2.0"},"extensionsUsed":["KHR_texture_transform"],"scene":0,"scenes":[{"nodes":[0],"name":"building-i"}],"accessors":[{"bufferView":0,"componentType":5126,"count":4012,"type":"VEC3","max":[0.6200000643730164,1.6800000667572021,0.6510000228881836],"min":[-0.6200000047683716,0,-0.6509999632835388]},{"bufferView":1,"componentType":5126,"count":4012,"type":"VEC3","max":[1.0000001192092896,1,1.0000001192092896],"min":[-1.0000001192092896,-1,-1.0000001192092896]},{"bufferView":2,"componentType":5126,"count":4012,"type":"VEC4","max":[1.0000001192092896,0.70710688829422,1.0000001192092896,1],"min":[-1.0000001192092896,-0.70710688829422,-1.0000001192092896,1]},{"bufferView":3,"componentType":5126,"count":4012,"type":"VEC2","max":[0.71875,0.7250000238418579],"min":[0.09375,0.2749999761581421]},{"bufferView":4,"componentType":5123,"count":7632,"type":"SCALAR","max":[4011],"min":[0]}],"buffers":[{"byteLength":207840,"uri":"data:application/octet-stream;base64,"}],"bufferViews":[{"buffer":0,"byteLength":48144,"byteStride":12,"target":34962},{"buffer":0,"byteOffset":48144,"byteLength":48144,"byteStride":12,"target":34962},{"buffer":0,"byteOffset":96288,"byteLength":64192,"target":34962},{"buffer":0,"byteOffset":160480,"byteLength":32096,"target":34962},{"buffer":0,"byteOffset":192576,"byteLength":15264,"target":34963}],"images":[{"uri":"Textures/colormap.png","name":"colormap"}],"materials":[{"pbrMetallicRoughness":{"baseColorTexture":{"index":0,"extensions":{"KHR_texture_transform":{"texCoord":0}}},"metallicFactor":0},"doubleSided":true,"name":"colormap"}],"meshes":[{"primitives":[{"attributes":{"POSITION":0,"NORMAL":1,"TANGENT":2,"TEXCOORD_0":3},"indices":4,"material":0}],"name":"building-i"}],"nodes":[{"mesh":0,"name":"building-i"}],"samplers":[{"minFilter":9987}],"textures":[{"sampler":0,"source":0,"name":"colormap"}]}