{"asset":{"generator":"UnityGLTF","version":"2.0"},"extensionsUsed":["KHR_texture_transform"],"scene":0,"scenes":[{"nodes":[0],"name":"building-d"}],"accessors":[{"bufferView":0,"componentType":5126,"count":1806,"type":"VEC3","max":[0.4200000464916229,1.2929999828338623,0.4499998092651367],"min":[-0.41999998688697815,0,-0.4500000476837158]},{"bufferView":1,"componentType":5126,"count":1806,"type":"VEC3","max":[1.0000001192092896,1,1.0000001192092896],"min":[-1,-1,-1.0000001192092896]},{"bufferView":2,"componentType":5126,"count":1806,"type":"VEC4","max":[1.0000001192092896,0.70710688829422,1.0000001192092896,1],"min":[-1.0000001192092896,-0.70710688829422,-1.0000001192092896,-1]},{"bufferView":3,"componentType":5126,"count":1806,"type":"VEC2","max":[0.71875,0.9750000238418579],"min":[0.09375,0.2749999761581421]},{"bufferView":4,"componentType":5123,"count":3300,"type":"SCALAR","max":[1805],"min":[0]}],"buffers":[{"byteLength":93288,"uri":"data:application/octet-stream;base64,"}],"bufferViews":[{"buffer":0,"byteLength":21672,"byteStride":12,"target":34962},{"buffer":0,"byteOffset":21672,"byteLength":21672,"byteStride":12,"target":34962},{"buffer":0,"byteOffset":43344,"byteLength":28896,"target":34962},{"buffer":0,"byteOffset":72240,"byteLength":14448,"target":34962},{"buffer":0,"byteOffset":86688,"byteLength":6600,"target":34963}],"images":[{"uri":"Textures/colormap.png","name":"colormap"}],"materials":[{"pbrMetallicRoughness":{"baseColorTexture":{"index":0,"extensions":{"KHR_texture_transform":{"texCoord":0}}},"metallicFactor":0},"doubleSided":true,"name":"colormap"}],"meshes":[{"primitives":[{"attributes":{"POSITION":0,"NORMAL":1,"TANGENT":2,"TEXCOORD_0":3},"indices":4,"material":0}],"name":"building-d"}],"nodes":[{"mesh":0,"name":"building-d"}],"samplers":[{"minFilter":9987}],"textures":[{"sampler":0,"source":0,"name":"colormap"}]}