{"asset":{"generator":"UnityGLTF","version":"2.0"},"extensionsUsed":["KHR_texture_transform"],"scene":0,"scenes":[{"nodes":[0],"name":"building-l"}],"accessors":[{"bufferView":0,"componentType":5126,"count":5574,"type":"VEC3","max":[0.6850000023841858,2.2699999809265137,0.7010000348091125],"min":[-0.6850000023841858,0,-0.7009999752044678]},{"bufferView":1,"componentType":5126,"count":5574,"type":"VEC3","max":[1.0000001192092896,1,1.0000001192092896],"min":[-1.0000001192092896,-1,-1.0000001192092896]},{"bufferView":2,"componentType":5126,"count":5574,"type":"VEC4","max":[1.0000001192092896,0.70710688829422,1.0000001192092896,1],"min":[-1.0000001192092896,-0.70710688829422,-1.0000001192092896,1]},{"bufferView":3,"componentType":5126,"count":5574,"type":"VEC2","max":[0.71875,0.7250000238418579],"min":[0.09375,0.2749999761581421]},{"bufferView":4,"componentType":5123,"count":10536,"type":"SCALAR","max":[5573],"min":[0]}],"buffers":[{"byteLength":288624,"uri":"data:application/octet-stream;base64,"}],"bufferViews":[{"buffer":0,"byteLength":66888,"byteStride":12,"target":34962},{"buffer":0,"byteOffset":66888,"byteLength":66888,"byteStride":12,"target":34962},{"buffer":0,"byteOffset":133776,"byteLength":89184,"target":34962},{"buffer":0,"byteOffset":222960,"byteLength":44592,"target":34962},{"buffer":0,"byteOffset":267552,"byteLength":21072,"target":34963}],"images":[{"uri":"Textures/colormap.png","name":"colormap"}],"materials":[{"pbrMetallicRoughness":{"baseColorTexture":{"index":0,"extensions":{"KHR_texture_transform":{"texCoord":0}}},"metallicFactor":0},"doubleSided":true,"name":"colormap"}],"meshes":[{"primitives":[{"attributes":{"POSITION":0,"NORMAL":1,"TANGENT":2,"TEXCOORD_0":3},"indices":4,"material":0}],"name":"building-l"}],"nodes":[{"mesh":0,"name":"building-l"}],"samplers":[{"minFilter":9987}],"textures":[{"sampler":0,"source":0,"name":"colormap"}]}