{"asset":{"generator":"UnityGLTF","version":"2.0"},"extensionsUsed":["KHR_texture_transform"],"scene":0,"scenes":[{"nodes":[0],"name":"building-k"}],"accessors":[{"bufferView":0,"componentType":5126,"count":4736,"type":"VEC3","max":[1.0417940616607666,1.4700000286102295,0.4709998071193695],"min":[-1.041793942451477,0,-0.47099998593330383]},{"bufferView":1,"componentType":5126,"count":4736,"type":"VEC3","max":[1.0000001192092896,1,1.0000001192092896],"min":[-1.0000001192092896,-1,-1.0000001192092896]},{"bufferView":2,"componentType":5126,"count":4736,"type":"VEC4","max":[1.0000001192092896,0.70710688829422,1.0000001192092896,1],"min":[-1.0000001192092896,-0.70710688829422,-1.0000001192092896,-1]},{"bufferView":3,"componentType":5126,"count":4736,"type":"VEC2","max":[0.71875,0.7250000238418579],"min":[0.09375,0.2749999761581421]},{"bufferView":4,"componentType":5123,"count":8880,"type":"SCALAR","max":[4735],"min":[0]}],"buffers":[{"byteLength":245088,"uri":"data:application/octet-stream;base64,"}],"bufferViews":[{"buffer":0,"byteLength":56832,"byteStride":12,"target":34962},{"buffer":0,"byteOffset":56832,"byteLength":56832,"byteStride":12,"target":34962},{"buffer":0,"byteOffset":113664,"byteLength":75776,"target":34962},{"buffer":0,"byteOffset":189440,"byteLength":37888,"target":34962},{"buffer":0,"byteOffset":227328,"byteLength":17760,"target":34963}],"images":[{"uri":"Textures/colormap.png","name":"colormap"}],"materials":[{"pbrMetallicRoughness":{"baseColorTexture":{"index":0,"extensions":{"KHR_texture_transform":{"texCoord":0}}},"metallicFactor":0},"doubleSided":true,"name":"colormap"}],"meshes":[{"primitives":[{"attributes":{"POSITION":0,"NORMAL":1,"TANGENT":2,"TEXCOORD_0":3},"indices":4,"material":0}],"name":"building-k"}],"nodes":[{"mesh":0,"name":"building-k"}],"samplers":[{"minFilter":9987}],"textures":[{"sampler":0,"source":0,"name":"colormap"}]}