{"asset":{"generator":"UnityGLTF","version":"2.0"},"extensionsUsed":["KHR_texture_transform"],"scene":0,"scenes":[{"nodes":[0],"name":"building-f"}],"accessors":[{"bufferView":0,"componentType":5126,"count":2842,"type":"VEC3","max":[0.42000001668930054,1.693000078201294,0.5150002241134644],"min":[-0.42000001668930054,0,-0.5149999856948853]},{"bufferView":1,"componentType":5126,"count":2842,"type":"VEC3","max":[1,1,1],"min":[-1,-1,-1]},{"bufferView":2,"componentType":5126,"count":2842,"type":"VEC4","max":[1,0.70710688829422,1,1],"min":[-1,-0.70710688829422,-1,-1]},{"bufferView":3,"componentType":5126,"count":2842,"type":"VEC2","max":[0.71875,0.9750000238418579],"min":[0.09375,0.2749999761581421]},{"bufferView":4,"componentType":5123,"count":5382,"type":"SCALAR","max":[2841],"min":[0]}],"buffers":[{"byteLength":147180,"uri":"data:application/octet-stream;base64,"}],"bufferViews":[{"buffer":0,"byteLength":34104,"byteStride":12,"target":34962},{"buffer":0,"byteOffset":34104,"byteLength":34104,"byteStride":12,"target":34962},{"buffer":0,"byteOffset":68208,"byteLength":45472,"target":34962},{"buffer":0,"byteOffset":113680,"byteLength":22736,"target":34962},{"buffer":0,"byteOffset":136416,"byteLength":10764,"target":34963}],"images":[{"uri":"Textures/colormap.png","name":"colormap"}],"materials":[{"pbrMetallicRoughness":{"baseColorTexture":{"index":0,"extensions":{"KHR_texture_transform":{"texCoord":0}}},"metallicFactor":0},"doubleSided":true,"name":"colormap"}],"meshes":[{"primitives":[{"attributes":{"POSITION":0,"NORMAL":1,"TANGENT":2,"TEXCOORD_0":3},"indices":4,"material":0}],"name":"building-f"}],"nodes":[{"mesh":0,"name":"building-f"}],"samplers":[{"minFilter":9987}],"textures":[{"sampler":0,"source":0,"name":"colormap"}]}