{"asset":{"generator":"UnityGLTF","version":"2.0"},"extensionsUsed":["KHR_texture_transform"],"scene":0,"scenes":[{"nodes":[0],"name":"detail-awning-wide"}],"accessors":[{"bufferView":0,"componentType":5126,"count":76,"type":"VEC3","max":[0.4000000059604645,0.4000000059604645,0.24789130687713623],"min":[-0.4000000059604645,-2.707167856703783e-16,0.09999999403953552]},{"bufferView":1,"componentType":5126,"count":76,"type":"VEC3","max":[1,0.9578262567520142,1],"min":[-1,-1,-1]},{"bufferView":2,"componentType":5126,"count":76,"type":"VEC4","max":[1,0,1,1],"min":[-1,0,-1,1]},{"bufferView":3,"componentType":5126,"count":76,"type":"VEC2","max":[0.09375,0.7250000238418579],"min":[0.09375,0.2749999761581421]},{"bufferView":4,"componentType":5121,"count":120,"type":"SCALAR","max":[75],"min":[0]}],"buffers":[{"byteLength":3768,"uri":"data:application/octet-stream;base64,"}],"bufferViews":[{"buffer":0,"byteLength":912,"byteStride":12,"target":34962},{"buffer":0,"byteOffset":912,"byteLength":912,"byteStride":12,"target":34962},{"buffer":0,"byteOffset":1824,"byteLength":1216,"target":34962},{"buffer":0,"byteOffset":3040,"byteLength":608,"target":34962},{"buffer":0,"byteOffset":3648,"byteLength":120,"target":34963}],"images":[{"uri":"Textures/colormap.png","name":"colormap"}],"materials":[{"pbrMetallicRoughness":{"baseColorTexture":{"index":0,"extensions":{"KHR_texture_transform":{"texCoord":0}}},"metallicFactor":0},"doubleSided":true,"name":"colormap"}],"meshes":[{"primitives":[{"attributes":{"POSITION":0,"NORMAL":1,"TANGENT":2,"TEXCOORD_0":3},"indices":4,"material":0}],"name":"detail-awning-wide"}],"nodes":[{"mesh":0,"name":"detail-awning-wide"}],"samplers":[{"minFilter":9987}],"textures":[{"sampler":0,"source":0,"name":"colormap"}]}