{"asset":{"generator":"UnityGLTF","version":"2.0"},"extensionsUsed":["KHR_texture_transform"],"scene":0,"scenes":[{"nodes":[0],"name":"construction-barrier"}],"accessors":[{"bufferView":0,"componentType":5126,"count":104,"type":"VEC3","max":[0.0677499994635582,0.12999999523162842,0.11249999701976776],"min":[-0.0677499994635582,0,-0.11249999701976776]},{"bufferView":1,"componentType":5126,"count":104,"type":"VEC3","max":[0.9238795042037964,1,0.9512409567832947],"min":[-0.9238795042037964,-1,-0.9512409567832947]},{"bufferView":2,"componentType":5126,"count":104,"type":"VEC4","max":[1,0.29811760783195496,0.9293836951255798,1],"min":[-1,-0.29811760783195496,-0.9293836951255798,1]},{"bufferView":3,"componentType":5126,"count":104,"type":"VEC2","max":[0.46875,0.7250000238418579],"min":[0.46875,0.5249999761581421]},{"bufferView":4,"componentType":5121,"count":180,"type":"SCALAR","max":[103],"min":[0]}],"buffers":[{"byteLength":5172,"uri":"data:application/octet-stream;base64,"}],"bufferViews":[{"buffer":0,"byteLength":1248,"byteStride":12,"target":34962},{"buffer":0,"byteOffset":1248,"byteLength":1248,"byteStride":12,"target":34962},{"buffer":0,"byteOffset":2496,"byteLength":1664,"target":34962},{"buffer":0,"byteOffset":4160,"byteLength":832,"target":34962},{"buffer":0,"byteOffset":4992,"byteLength":180,"target":34963}],"images":[{"uri":"Textures/colormap.png","name":"colormap"}],"materials":[{"pbrMetallicRoughness":{"baseColorTexture":{"index":0,"extensions":{"KHR_texture_transform":{"texCoord":0}}},"metallicFactor":0},"doubleSided":true,"name":"colormap"}],"meshes":[{"primitives":[{"attributes":{"POSITION":0,"NORMAL":1,"TANGENT":2,"TEXCOORD_0":3},"indices":4,"material":0}],"name":"construction-barrier"}],"nodes":[{"mesh":0,"name":"construction-barrier"}],"samplers":[{"minFilter":9987}],"textures":[{"sampler":0,"source":0,"name":"colormap"}]}