{"asset":{"generator":"UnityGLTF","version":"2.0"},"extensionsUsed":["KHR_texture_transform"],"scene":0,"scenes":[{"nodes":[0],"name":"construction-cone"}],"accessors":[{"bufferView":0,"componentType":5126,"count":104,"type":"VEC3","max":[0.03750000149011612,0.09375,0.03750000149011612],"min":[-0.03750000149011612,0,-0.03750000149011612]},{"bufferView":1,"componentType":5126,"count":104,"type":"VEC3","max":[0.9711689949035645,1,0.9711689949035645],"min":[-0.9711689949035645,-1,-0.9711689949035645]},{"bufferView":2,"componentType":5126,"count":104,"type":"VEC4","max":[1,0.09543415904045105,0.9951600432395935,1],"min":[-1,-0.09543415904045105,-0.9951600432395935,1]},{"bufferView":3,"componentType":5126,"count":104,"type":"VEC2","max":[0.59375,0.6050000190734863],"min":[0.46875,0.32499998807907104]},{"bufferView":4,"componentType":5121,"count":198,"type":"SCALAR","max":[103],"min":[0]}],"buffers":[{"byteLength":5192,"uri":"data:application/octet-stream;base64,"}],"bufferViews":[{"buffer":0,"byteLength":1248,"byteStride":12,"target":34962},{"buffer":0,"byteOffset":1248,"byteLength":1248,"byteStride":12,"target":34962},{"buffer":0,"byteOffset":2496,"byteLength":1664,"target":34962},{"buffer":0,"byteOffset":4160,"byteLength":832,"target":34962},{"buffer":0,"byteOffset":4992,"byteLength":200,"target":34963}],"images":[{"uri":"Textures/colormap.png","name":"colormap"}],"materials":[{"pbrMetallicRoughness":{"baseColorTexture":{"index":0,"extensions":{"KHR_texture_transform":{"texCoord":0}}},"metallicFactor":0},"doubleSided":true,"name":"colormap"}],"meshes":[{"primitives":[{"attributes":{"POSITION":0,"NORMAL":1,"TANGENT":2,"TEXCOORD_0":3},"indices":4,"material":0}],"name":"construction-cone"}],"nodes":[{"mesh":0,"name":"construction-cone"}],"samplers":[{"minFilter":9987}],"textures":[{"sampler":0,"source":0,"name":"colormap"}]}