{"asset":{"generator":"UnityGLTF","version":"2.0"},"extensionsUsed":["KHR_texture_transform"],"scene":0,"scenes":[{"nodes":[0],"name":"dumpster"}],"accessors":[{"bufferView":0,"componentType":5126,"count":272,"type":"VEC3","max":[0.14500001072883606,0.20609240233898163,0.1850001960992813],"min":[-0.1300000101327896,0,-0.1849999576807022]},{"bufferView":1,"componentType":5126,"count":272,"type":"VEC3","max":[1,0.9813926815986633,1],"min":[-1.0000001192092896,-1,-1]},{"bufferView":2,"componentType":5126,"count":272,"type":"VEC4","max":[1,0.5,1.0000001192092896,1],"min":[-1,-0.5,-1,1]},{"bufferView":3,"componentType":5126,"count":272,"type":"VEC2","max":[0.59375,0.9750000238418579],"min":[0.21875,0.2749999761581421]},{"bufferView":4,"componentType":5123,"count":498,"type":"SCALAR","max":[271],"min":[0]},{"bufferView":5,"componentType":5126,"count":60,"type":"VEC3","max":[0,0.029441779479384422,0.06749999523162842],"min":[-0.23192012310028076,-0.044999998062849045,-0.09750000387430191]},{"bufferView":6,"componentType":5126,"count":60,"type":"VEC3","max":[0.9813926815986633,0.9813926815986633,1],"min":[-0.9119217991828918,-0.9813926815986633,-1]},{"bufferView":7,"componentType":5126,"count":60,"type":"VEC4","max":[1,0.37434881925582886,1,1],"min":[-1,-0.3755626678466797,-1,1]},{"bufferView":8,"componentType":5126,"count":60,"type":"VEC2","max":[0.21875,0.9750000238418579],"min":[0.21875,0.7749999761581421]},{"bufferView":9,"componentType":5121,"count":102,"type":"SCALAR","max":[59],"min":[0]},{"bufferView":10,"componentType":5126,"count":60,"type":"VEC3","max":[0,0.029441779479384422,0.06749999523162842],"min":[-0.23192012310028076,-0.044999998062849045,-0.09750000387430191]},{"bufferView":11,"componentType":5126,"count":60,"type":"VEC3","max":[0.9813926815986633,0.9813926815986633,1],"min":[-0.9119217991828918,-0.9813926815986633,-1]},{"bufferView":12,"componentType":5126,"count":60,"type":"VEC4","max":[1,0.37434881925582886,1,1],"min":[-1,-0.3755626678466797,-1,1]},{"bufferView":13,"componentType":5126,"count":60,"type":"VEC2","max":[0.21875,0.9750000238418579],"min":[0.21875,0.7749999761581421]},{"bufferView":14,"componentType":5121,"count":102,"type":"SCALAR","max":[59],"min":[0]}],"buffers":[{"byteLength":20020,"uri":"data:application/octet-stream;base64,"}],"bufferViews":[{"buffer":0,"byteLength":3264,"byteStride":12,"target":34962},{"buffer":0,"byteOffset":3264,"byteLength":3264,"byteStride":12,"target":34962},{"buffer":0,"byteOffset":6528,"byteLength":4352,"target":34962},{"buffer":0,"byteOffset":10880,"byteLength":2176,"target":34962},{"buffer":0,"byteOffset":13056,"byteLength":996,"target":34963},{"buffer":0,"byteOffset":14052,"byteLength":720,"byteStride":12,"target":34962},{"buffer":0,"byteOffset":14772,"byteLength":720,"byteStride":12,"target":34962},{"buffer":0,"byteOffset":15492,"byteLength":960,"target":34962},{"buffer":0,"byteOffset":16452,"byteLength":480,"target":34962},{"buffer":0,"byteOffset":16932,"byteLength":104,"target":34963},{"buffer":0,"byteOffset":17036,"byteLength":720,"byteStride":12,"target":34962},{"buffer":0,"byteOffset":17756,"byteLength":720,"byteStride":12,"target":34962},{"buffer":0,"byteOffset":18476,"byteLength":960,"target":34962},{"buffer":0,"byteOffset":19436,"byteLength":480,"target":34962},{"buffer":0,"byteOffset":19916,"byteLength":104,"target":34963}],"images":[{"uri":"Textures/colormap.png","name":"colormap"}],"materials":[{"pbrMetallicRoughness":{"baseColorTexture":{"index":0,"extensions":{"KHR_texture_transform":{"texCoord":0}}},"metallicFactor":0},"doubleSided":true,"name":"colormap"}],"meshes":[{"primitives":[{"attributes":{"POSITION":0,"NORMAL":1,"TANGENT":2,"TEXCOORD_0":3},"indices":4,"material":0}],"name":"dumpster"},{"primitives":[{"attributes":{"POSITION":5,"NORMAL":6,"TANGENT":7,"TEXCOORD_0":8},"indices":9,"material":0}],"name":"lid-left"},{"primitives":[{"attributes":{"POSITION":10,"NORMAL":11,"TANGENT":12,"TEXCOORD_0":13},"indices":14,"material":0}],"name":"lid-right"}],"nodes":[{"children":[1,2],"mesh":0,"name":"dumpster"},{"mesh":1,"translation":[0.110000014,0.179999992,-0.0675001144],"name":"lid-left"},{"mesh":2,"rotation":[0,-1,0,0],"scale":[-1,1,1],"translation":[0.110000014,0.179999992,0.0675001144],"name":"lid-right"}],"samplers":[{"minFilter":9987}],"textures":[{"sampler":0,"source":0,"name":"colormap"}]}