{"asset":{"generator":"UnityGLTF","version":"2.0"},"extensionsUsed":["KHR_texture_transform"],"scene":0,"scenes":[{"nodes":[0],"name":"electricity-pole"}],"accessors":[{"bufferView":0,"componentType":5126,"count":820,"type":"VEC3","max":[0.2817249894142151,0.5249999761581421,0.10711249709129333],"min":[-0.29736000299453735,4.511975103434207e-16,-0.10711249709129333]},{"bufferView":1,"componentType":5126,"count":820,"type":"VEC3","max":[1,1,1],"min":[-1,-1,-1]},{"bufferView":2,"componentType":5126,"count":820,"type":"VEC4","max":[1,0.7071068286895752,1,1],"min":[-1,-0.7071068286895752,-1,1]},{"bufferView":3,"componentType":5126,"count":820,"type":"VEC2","max":[0.71875,0.9750000238418579],"min":[0.34375,0.5249999761581421]},{"bufferView":4,"componentType":5123,"count":1248,"type":"SCALAR","max":[819],"min":[0]}],"buffers":[{"byteLength":41856,"uri":"data:application/octet-stream;base64,"}],"bufferViews":[{"buffer":0,"byteLength":9840,"byteStride":12,"target":34962},{"buffer":0,"byteOffset":9840,"byteLength":9840,"byteStride":12,"target":34962},{"buffer":0,"byteOffset":19680,"byteLength":13120,"target":34962},{"buffer":0,"byteOffset":32800,"byteLength":6560,"target":34962},{"buffer":0,"byteOffset":39360,"byteLength":2496,"target":34963}],"images":[{"uri":"Textures/colormap.png","name":"colormap"}],"materials":[{"pbrMetallicRoughness":{"baseColorTexture":{"index":0,"extensions":{"KHR_texture_transform":{"texCoord":0}}},"metallicFactor":0},"doubleSided":true,"name":"colormap"}],"meshes":[{"primitives":[{"attributes":{"POSITION":0,"NORMAL":1,"TANGENT":2,"TEXCOORD_0":3},"indices":4,"material":0}],"name":"electricity-pole"}],"nodes":[{"mesh":0,"name":"electricity-pole"}],"samplers":[{"minFilter":9987}],"textures":[{"sampler":0,"source":0,"name":"colormap"}]}