{"asset":{"generator":"UnityGLTF","version":"2.0"},"extensionsUsed":["KHR_texture_transform"],"scene":0,"scenes":[{"nodes":[0],"name":"light-square"}],"accessors":[{"bufferView":0,"componentType":5126,"count":106,"type":"VEC3","max":[0.02500000037252903,0.6000000238418579,0.02500000037252903],"min":[-0.02500000037252903,0,-0.21250002086162567]},{"bufferView":1,"componentType":5126,"count":106,"type":"VEC3","max":[1,1,1],"min":[-1,-1,-1]},{"bufferView":2,"componentType":5126,"count":106,"type":"VEC4","max":[1,0,1,1],"min":[-1,0,-1,1]},{"bufferView":3,"componentType":5126,"count":106,"type":"VEC2","max":[0.53125,0.675000011920929],"min":[0.46875,0.5249999761581421]},{"bufferView":4,"componentType":5121,"count":180,"type":"SCALAR","max":[105],"min":[0]}],"buffers":[{"byteLength":5268,"uri":"data:application/octet-stream;base64,"}],"bufferViews":[{"buffer":0,"byteLength":1272,"byteStride":12,"target":34962},{"buffer":0,"byteOffset":1272,"byteLength":1272,"byteStride":12,"target":34962},{"buffer":0,"byteOffset":2544,"byteLength":1696,"target":34962},{"buffer":0,"byteOffset":4240,"byteLength":848,"target":34962},{"buffer":0,"byteOffset":5088,"byteLength":180,"target":34963}],"images":[{"uri":"Textures/colormap.png","name":"colormap"}],"materials":[{"pbrMetallicRoughness":{"baseColorTexture":{"index":0,"extensions":{"KHR_texture_transform":{"texCoord":0}}},"metallicFactor":0},"doubleSided":true,"name":"colormap"}],"meshes":[{"primitives":[{"attributes":{"POSITION":0,"NORMAL":1,"TANGENT":2,"TEXCOORD_0":3},"indices":4,"material":0}],"name":"light-square"}],"nodes":[{"mesh":0,"name":"light-square"}],"samplers":[{"minFilter":9987}],"textures":[{"sampler":0,"source":0,"name":"colormap"}]}