{"asset":{"generator":"UnityGLTF","version":"2.0"},"extensionsUsed":["KHR_texture_transform"],"scene":0,"scenes":[{"nodes":[0],"name":"light-curved"}],"accessors":[{"bufferView":0,"componentType":5126,"count":156,"type":"VEC3","max":[0.02500000037252903,0.6749999523162842,0.02500000037252903],"min":[-0.02500000037252903,0,-0.20000000298023224]},{"bufferView":1,"componentType":5126,"count":156,"type":"VEC3","max":[1,1,1],"min":[-1,-1,-1]},{"bufferView":2,"componentType":5126,"count":156,"type":"VEC4","max":[1,0,1,1],"min":[-1,0,-1,1]},{"bufferView":3,"componentType":5126,"count":156,"type":"VEC2","max":[0.53125,0.6805555820465088],"min":[0.46875,0.5249999761581421]},{"bufferView":4,"componentType":5121,"count":276,"type":"SCALAR","max":[155],"min":[0]}],"buffers":[{"byteLength":7764,"uri":"data:application/octet-stream;base64,"}],"bufferViews":[{"buffer":0,"byteLength":1872,"byteStride":12,"target":34962},{"buffer":0,"byteOffset":1872,"byteLength":1872,"byteStride":12,"target":34962},{"buffer":0,"byteOffset":3744,"byteLength":2496,"target":34962},{"buffer":0,"byteOffset":6240,"byteLength":1248,"target":34962},{"buffer":0,"byteOffset":7488,"byteLength":276,"target":34963}],"images":[{"uri":"Textures/colormap.png","name":"colormap"}],"materials":[{"pbrMetallicRoughness":{"baseColorTexture":{"index":0,"extensions":{"KHR_texture_transform":{"texCoord":0}}},"metallicFactor":0},"doubleSided":true,"name":"colormap"}],"meshes":[{"primitives":[{"attributes":{"POSITION":0,"NORMAL":1,"TANGENT":2,"TEXCOORD_0":3},"indices":4,"material":0}],"name":"light-curved"}],"nodes":[{"mesh":0,"name":"light-curved"}],"samplers":[{"minFilter":9987}],"textures":[{"sampler":0,"source":0,"name":"colormap"}]}