{"asset":{"generator":"UnityGLTF","version":"2.0"},"extensionsUsed":["KHR_texture_transform"],"scene":0,"scenes":[{"nodes":[0],"name":"road-intersection"}],"accessors":[{"bufferView":0,"componentType":5126,"count":124,"type":"VEC3","max":[0.5,0.019999999552965164,0.5000001192092896],"min":[-0.5,0,-0.5]},{"bufferView":1,"componentType":5126,"count":124,"type":"VEC3","max":[1,1,1],"min":[-1,-1,-1]},{"bufferView":2,"componentType":5126,"count":124,"type":"VEC4","max":[1,0,1,1],"min":[-1,0,-1,1]},{"bufferView":3,"componentType":5126,"count":124,"type":"VEC2","max":[0.46875,0.9750000238418579],"min":[0.03125,0.5249999761581421]},{"bufferView":4,"componentType":5121,"count":252,"type":"SCALAR","max":[123],"min":[0]}],"buffers":[{"byteLength":6204,"uri":"data:application/octet-stream;base64,"}],"bufferViews":[{"buffer":0,"byteLength":1488,"byteStride":12,"target":34962},{"buffer":0,"byteOffset":1488,"byteLength":1488,"byteStride":12,"target":34962},{"buffer":0,"byteOffset":2976,"byteLength":1984,"target":34962},{"buffer":0,"byteOffset":4960,"byteLength":992,"target":34962},{"buffer":0,"byteOffset":5952,"byteLength":252,"target":34963}],"images":[{"uri":"Textures/colormap.png","name":"colormap"}],"materials":[{"pbrMetallicRoughness":{"baseColorTexture":{"index":0,"extensions":{"KHR_texture_transform":{"texCoord":0}}},"metallicFactor":0},"doubleSided":true,"name":"colormap"}],"meshes":[{"primitives":[{"attributes":{"POSITION":0,"NORMAL":1,"TANGENT":2,"TEXCOORD_0":3},"indices":4,"material":0}],"name":"road-intersection"}],"nodes":[{"mesh":0,"name":"road-intersection"}],"samplers":[{"minFilter":9987}],"textures":[{"sampler":0,"source":0,"name":"colormap"}]}