{"asset":{"generator":"UnityGLTF","version":"2.0"},"extensionsUsed":["KHR_texture_transform"],"scene":0,"scenes":[{"nodes":[0],"name":"road-sign-stop"}],"accessors":[{"bufferView":0,"componentType":5126,"count":180,"type":"VEC3","max":[0.026096034795045853,0.49407491087913513,0.06910618394613266],"min":[-0.051403969526290894,0,-0.06910618394613266]},{"bufferView":1,"componentType":5126,"count":180,"type":"VEC3","max":[1,1,1],"min":[-1,-1,-1]},{"bufferView":2,"componentType":5126,"count":180,"type":"VEC4","max":[1,0.3322444558143616,1,1],"min":[-1,-0.3322444558143616,-1,1]},{"bufferView":3,"componentType":5126,"count":180,"type":"VEC2","max":[0.59375,0.9750000238418579],"min":[0.34375,0.2854762077331543]},{"bufferView":4,"componentType":5121,"count":312,"type":"SCALAR","max":[179],"min":[0]}],"buffers":[{"byteLength":8952,"uri":"data:application/octet-stream;base64,"}],"bufferViews":[{"buffer":0,"byteLength":2160,"byteStride":12,"target":34962},{"buffer":0,"byteOffset":2160,"byteLength":2160,"byteStride":12,"target":34962},{"buffer":0,"byteOffset":4320,"byteLength":2880,"target":34962},{"buffer":0,"byteOffset":7200,"byteLength":1440,"target":34962},{"buffer":0,"byteOffset":8640,"byteLength":312,"target":34963}],"images":[{"uri":"Textures/colormap.png","name":"colormap"}],"materials":[{"pbrMetallicRoughness":{"baseColorTexture":{"index":0,"extensions":{"KHR_texture_transform":{"texCoord":0}}},"metallicFactor":0},"doubleSided":true,"name":"colormap"}],"meshes":[{"primitives":[{"attributes":{"POSITION":0,"NORMAL":1,"TANGENT":2,"TEXCOORD_0":3},"indices":4,"material":0}],"name":"road-sign-stop"}],"nodes":[{"mesh":0,"name":"road-sign-stop"}],"samplers":[{"minFilter":9987}],"textures":[{"sampler":0,"source":0,"name":"colormap"}]}