{"asset":{"generator":"UnityGLTF","version":"2.0"},"extensionsUsed":["KHR_texture_transform"],"scene":0,"scenes":[{"nodes":[0],"name":"road-sign-warning"}],"accessors":[{"bufferView":0,"componentType":5126,"count":196,"type":"VEC3","max":[0.026096034795045853,0.4985623359680176,0.0735936164855957],"min":[-0.05124999210238457,0,-0.0735936164855957]},{"bufferView":1,"componentType":5126,"count":196,"type":"VEC3","max":[1,1,1],"min":[-1,-1,-1]},{"bufferView":2,"componentType":5126,"count":196,"type":"VEC4","max":[1,0.34682056307792664,1,1],"min":[-1,-0.34682056307792664,-1,1]},{"bufferView":3,"componentType":5126,"count":196,"type":"VEC2","max":[0.71875,0.9750000238418579],"min":[0.34375,0.574999988079071]},{"bufferView":4,"componentType":5121,"count":312,"type":"SCALAR","max":[195],"min":[0]}],"buffers":[{"byteLength":9720,"uri":"data:application/octet-stream;base64,"}],"bufferViews":[{"buffer":0,"byteLength":2352,"byteStride":12,"target":34962},{"buffer":0,"byteOffset":2352,"byteLength":2352,"byteStride":12,"target":34962},{"buffer":0,"byteOffset":4704,"byteLength":3136,"target":34962},{"buffer":0,"byteOffset":7840,"byteLength":1568,"target":34962},{"buffer":0,"byteOffset":9408,"byteLength":312,"target":34963}],"images":[{"uri":"Textures/colormap.png","name":"colormap"}],"materials":[{"pbrMetallicRoughness":{"baseColorTexture":{"index":0,"extensions":{"KHR_texture_transform":{"texCoord":0}}},"metallicFactor":0},"doubleSided":true,"name":"colormap"}],"meshes":[{"primitives":[{"attributes":{"POSITION":0,"NORMAL":1,"TANGENT":2,"TEXCOORD_0":3},"indices":4,"material":0}],"name":"road-sign-warning"}],"nodes":[{"mesh":0,"name":"road-sign-warning"}],"samplers":[{"minFilter":9987}],"textures":[{"sampler":0,"source":0,"name":"colormap"}]}