{"asset":{"generator":"UnityGLTF","version":"2.0"},"extensionsUsed":["KHR_texture_transform"],"scene":0,"scenes":[{"nodes":[0],"name":"road-crossing"}],"accessors":[{"bufferView":0,"componentType":5126,"count":140,"type":"VEC3","max":[0.5,0.019999999552965164,0.5],"min":[-0.5,0,-0.5]},{"bufferView":1,"componentType":5126,"count":140,"type":"VEC3","max":[1,1,1],"min":[-1,-1,-1]},{"bufferView":2,"componentType":5126,"count":140,"type":"VEC4","max":[1,0,1,1],"min":[-1,0,-1,1]},{"bufferView":3,"componentType":5126,"count":140,"type":"VEC2","max":[0.46875,0.9750000238418579],"min":[0.03125,0.5249999761581421]},{"bufferView":4,"componentType":5121,"count":312,"type":"SCALAR","max":[139],"min":[0]}],"buffers":[{"byteLength":7032,"uri":"data:application/octet-stream;base64,"}],"bufferViews":[{"buffer":0,"byteLength":1680,"byteStride":12,"target":34962},{"buffer":0,"byteOffset":1680,"byteLength":1680,"byteStride":12,"target":34962},{"buffer":0,"byteOffset":3360,"byteLength":2240,"target":34962},{"buffer":0,"byteOffset":5600,"byteLength":1120,"target":34962},{"buffer":0,"byteOffset":6720,"byteLength":312,"target":34963}],"images":[{"uri":"Textures/colormap.png","name":"colormap"}],"materials":[{"pbrMetallicRoughness":{"baseColorTexture":{"index":0,"extensions":{"KHR_texture_transform":{"texCoord":0}}},"metallicFactor":0},"doubleSided":true,"name":"colormap"}],"meshes":[{"primitives":[{"attributes":{"POSITION":0,"NORMAL":1,"TANGENT":2,"TEXCOORD_0":3},"indices":4,"material":0}],"name":"road-crossing"}],"nodes":[{"mesh":0,"name":"road-crossing"}],"samplers":[{"minFilter":9987}],"textures":[{"sampler":0,"source":0,"name":"colormap"}]}