{"asset":{"generator":"UnityGLTF","version":"2.0"},"extensionsUsed":["KHR_texture_transform"],"scene":0,"scenes":[{"nodes":[0],"name":"road-sign-street"}],"accessors":[{"bufferView":0,"componentType":5126,"count":276,"type":"VEC3","max":[0.02500000037252903,0.4750000238418579,0.17124979197978973],"min":[-0.17125001549720764,0,-0.02500000037252903]},{"bufferView":1,"componentType":5126,"count":276,"type":"VEC3","max":[1,1,1],"min":[-1,-1,-1]},{"bufferView":2,"componentType":5126,"count":276,"type":"VEC4","max":[1,1.0000001192092896,1,1],"min":[-1,-1.0000001192092896,-1,1]},{"bufferView":3,"componentType":5126,"count":276,"type":"VEC2","max":[0.46875,0.9750000238418579],"min":[0.21875,0.2749999761581421]},{"bufferView":4,"componentType":5123,"count":462,"type":"SCALAR","max":[275],"min":[0]}],"buffers":[{"byteLength":14172,"uri":"data:application/octet-stream;base64,"}],"bufferViews":[{"buffer":0,"byteLength":3312,"byteStride":12,"target":34962},{"buffer":0,"byteOffset":3312,"byteLength":3312,"byteStride":12,"target":34962},{"buffer":0,"byteOffset":6624,"byteLength":4416,"target":34962},{"buffer":0,"byteOffset":11040,"byteLength":2208,"target":34962},{"buffer":0,"byteOffset":13248,"byteLength":924,"target":34963}],"images":[{"uri":"Textures/colormap.png","name":"colormap"}],"materials":[{"pbrMetallicRoughness":{"baseColorTexture":{"index":0,"extensions":{"KHR_texture_transform":{"texCoord":0}}},"metallicFactor":0},"doubleSided":true,"name":"colormap"}],"meshes":[{"primitives":[{"attributes":{"POSITION":0,"NORMAL":1,"TANGENT":2,"TEXCOORD_0":3},"indices":4,"material":0}],"name":"road-sign-street"}],"nodes":[{"mesh":0,"name":"road-sign-street"}],"samplers":[{"minFilter":9987}],"textures":[{"sampler":0,"source":0,"name":"colormap"}]}