{"asset":{"generator":"UnityGLTF","version":"2.0"},"extensionsUsed":["KHR_texture_transform"],"scene":0,"scenes":[{"nodes":[0],"name":"road-bend"}],"accessors":[{"bufferView":0,"componentType":5126,"count":352,"type":"VEC3","max":[0.5,0.019999999552965164,0.5],"min":[-0.5,0,-0.5]},{"bufferView":1,"componentType":5126,"count":352,"type":"VEC3","max":[0.9978589415550232,1,1],"min":[-1,-1,-0.9978589415550232]},{"bufferView":2,"componentType":5126,"count":352,"type":"VEC4","max":[1,0,1,1],"min":[-1,0,-0.9978589415550232,1]},{"bufferView":3,"componentType":5126,"count":352,"type":"VEC2","max":[0.46875,0.9750000238418579],"min":[0.03125,0.5249999761581421]},{"bufferView":4,"componentType":5123,"count":780,"type":"SCALAR","max":[351],"min":[0]}],"buffers":[{"byteLength":18456,"uri":"data:application/octet-stream;base64,"}],"bufferViews":[{"buffer":0,"byteLength":4224,"byteStride":12,"target":34962},{"buffer":0,"byteOffset":4224,"byteLength":4224,"byteStride":12,"target":34962},{"buffer":0,"byteOffset":8448,"byteLength":5632,"target":34962},{"buffer":0,"byteOffset":14080,"byteLength":2816,"target":34962},{"buffer":0,"byteOffset":16896,"byteLength":1560,"target":34963}],"images":[{"uri":"Textures/colormap.png","name":"colormap"}],"materials":[{"pbrMetallicRoughness":{"baseColorTexture":{"index":0,"extensions":{"KHR_texture_transform":{"texCoord":0}}},"metallicFactor":0},"doubleSided":true,"name":"colormap"}],"meshes":[{"primitives":[{"attributes":{"POSITION":0,"NORMAL":1,"TANGENT":2,"TEXCOORD_0":3},"indices":4,"material":0}],"name":"road-bend"}],"nodes":[{"mesh":0,"name":"road-bend"}],"samplers":[{"minFilter":9987}],"textures":[{"sampler":0,"source":0,"name":"colormap"}]}