{"asset":{"generator":"UnityGLTF","version":"2.0"},"extensionsUsed":["KHR_texture_transform"],"scene":0,"scenes":[{"nodes":[0],"name":"traffic-light"}],"accessors":[{"bufferView":0,"componentType":5126,"count":360,"type":"VEC3","max":[0.044999998062849045,0.5149999856948853,0.044999998062849045],"min":[-0.07259999960660934,2.2558181451276527e-17,-0.044999998062849045]},{"bufferView":1,"componentType":5126,"count":360,"type":"VEC3","max":[1,1,1],"min":[-1,-1,-1]},{"bufferView":2,"componentType":5126,"count":360,"type":"VEC4","max":[1,0.9326995611190796,1,1],"min":[-1,-0.9326995611190796,-1,-1]},{"bufferView":3,"componentType":5126,"count":360,"type":"VEC2","max":[0.96875,0.9750000238418579],"min":[0.21875,0.2749999761581421]},{"bufferView":4,"componentType":5123,"count":636,"type":"SCALAR","max":[359],"min":[0]}],"buffers":[{"byteLength":18552,"uri":"data:application/octet-stream;base64,"}],"bufferViews":[{"buffer":0,"byteLength":4320,"byteStride":12,"target":34962},{"buffer":0,"byteOffset":4320,"byteLength":4320,"byteStride":12,"target":34962},{"buffer":0,"byteOffset":8640,"byteLength":5760,"target":34962},{"buffer":0,"byteOffset":14400,"byteLength":2880,"target":34962},{"buffer":0,"byteOffset":17280,"byteLength":1272,"target":34963}],"images":[{"uri":"Textures/colormap.png","name":"colormap"}],"materials":[{"pbrMetallicRoughness":{"baseColorTexture":{"index":0,"extensions":{"KHR_texture_transform":{"texCoord":0}}},"metallicFactor":0},"doubleSided":true,"name":"colormap"}],"meshes":[{"primitives":[{"attributes":{"POSITION":0,"NORMAL":1,"TANGENT":2,"TEXCOORD_0":3},"indices":4,"material":0}],"name":"traffic-light"}],"nodes":[{"mesh":0,"name":"traffic-light"}],"samplers":[{"minFilter":9987}],"textures":[{"sampler":0,"source":0,"name":"colormap"}]}