{"asset":{"generator":"UnityGLTF","version":"2.0"},"extensionsUsed":["KHR_texture_transform"],"scene":0,"scenes":[{"nodes":[0],"name":"building-garage"}],"accessors":[{"bufferView":0,"componentType":5126,"count":340,"type":"VEC3","max":[0.5,0.550000011920929,0.5],"min":[-0.5,0.0,-0.5]},{"bufferView":1,"componentType":5126,"count":340,"type":"VEC3","max":[1.0,1.0,1.0],"min":[-1.0,-1.0,-1.0]},{"bufferView":2,"componentType":5126,"count":340,"type":"VEC4","max":[1.0,0.3826834559440613,1.0,1.0],"min":[-1.0,-0.3826834559440613,-1.0,1.0]},{"bufferView":3,"componentType":5126,"count":340,"type":"VEC2","max":[0.46875,0.9750000238418579],"min":[0.09375,0.6000000238418579]},{"bufferView":4,"componentType":5123,"count":588,"type":"SCALAR","max":[339.0],"min":[0.0]}],"buffers":[{"byteLength":17496,"uri":"data:application/octet-stream;base64,"}],"bufferViews":[{"buffer":0,"byteLength":4080,"byteStride":12,"target":34962},{"buffer":0,"byteOffset":4080,"byteLength":4080,"byteStride":12,"target":34962},{"buffer":0,"byteOffset":8160,"byteLength":5440,"target":34962},{"buffer":0,"byteOffset":13600,"byteLength":2720,"target":34962},{"buffer":0,"byteOffset":16320,"byteLength":1176,"target":34963}],"images":[{"uri":"Textures/colormap.png","name":"colormap"}],"materials":[{"pbrMetallicRoughness":{"baseColorTexture":{"index":0,"extensions":{"KHR_texture_transform":{"texCoord":0}}},"metallicFactor":0.0},"doubleSided":true,"name":"colormap"}],"meshes":[{"primitives":[{"attributes":{"POSITION":0,"NORMAL":1,"TANGENT":2,"TEXCOORD_0":3},"indices":4,"material":0}],"name":"building-garage"}],"nodes":[{"mesh":0,"name":"building-garage"}],"samplers":[{"minFilter":9987}],"textures":[{"sampler":0,"source":0,"name":"colormap"}]}