{"asset":{"generator":"UnityGLTF","version":"2.0"},"extensionsUsed":["KHR_texture_transform"],"scene":0,"scenes":[{"nodes":[0],"name":"building-small-b"}],"accessors":[{"bufferView":0,"componentType":5126,"count":926,"type":"VEC3","max":[0.5,1.626499891281128,0.5],"min":[-0.5,0.0,-0.5]},{"bufferView":1,"componentType":5126,"count":926,"type":"VEC3","max":[1.0,1.0,1.0],"min":[-1.0,-1.0,-1.0]},{"bufferView":2,"componentType":5126,"count":926,"type":"VEC4","max":[1.0,0.38268348574638367,1.0,1.0],"min":[-1.0,-0.38268348574638367,-1.0,1.0]},{"bufferView":3,"componentType":5126,"count":926,"type":"VEC2","max":[0.71875,0.9750000238418579],"min":[0.09375,0.574999988079071]},{"bufferView":4,"componentType":5123,"count":1800,"type":"SCALAR","max":[925.0],"min":[0.0]}],"buffers":[{"byteLength":48048,"uri":"data:application/octet-stream;base64,"}],"bufferViews":[{"buffer":0,"byteLength":11112,"byteStride":12,"target":34962},{"buffer":0,"byteOffset":11112,"byteLength":11112,"byteStride":12,"target":34962},{"buffer":0,"byteOffset":22224,"byteLength":14816,"target":34962},{"buffer":0,"byteOffset":37040,"byteLength":7408,"target":34962},{"buffer":0,"byteOffset":44448,"byteLength":3600,"target":34963}],"images":[{"uri":"Textures/colormap.png","name":"colormap"}],"materials":[{"pbrMetallicRoughness":{"baseColorTexture":{"index":0,"extensions":{"KHR_texture_transform":{"texCoord":0}}},"metallicFactor":0.0},"doubleSided":true,"name":"colormap"}],"meshes":[{"primitives":[{"attributes":{"POSITION":0,"NORMAL":1,"TANGENT":2,"TEXCOORD_0":3},"indices":4,"material":0}],"name":"building-small-b"}],"nodes":[{"mesh":0,"name":"building-small-b"}],"samplers":[{"minFilter":9987}],"textures":[{"sampler":0,"source":0,"name":"colormap"}]}