{"asset":{"generator":"UnityGLTF","version":"2.0"},"extensionsUsed":["KHR_texture_transform"],"scene":0,"scenes":[{"nodes":[0],"name":"building-small-a"}],"accessors":[{"bufferView":0,"componentType":5126,"count":734,"type":"VEC3","max":[0.5,0.949999988079071,0.5],"min":[-0.5,0.0,-0.5]},{"bufferView":1,"componentType":5126,"count":734,"type":"VEC3","max":[1.0,1.0,1.0],"min":[-1.0,-1.0,-1.0]},{"bufferView":2,"componentType":5126,"count":734,"type":"VEC4","max":[1.0,0.4567549526691437,1.0,1.0],"min":[-1.0,-0.45675501227378845,-1.0,1.0]},{"bufferView":3,"componentType":5126,"count":734,"type":"VEC2","max":[0.71875,0.9750000238418579],"min":[0.09375,0.5249999761581421]},{"bufferView":4,"componentType":5123,"count":1356,"type":"SCALAR","max":[733.0],"min":[0.0]}],"buffers":[{"byteLength":37944,"uri":"data:application/octet-stream;base64,"}],"bufferViews":[{"buffer":0,"byteLength":8808,"byteStride":12,"target":34962},{"buffer":0,"byteOffset":8808,"byteLength":8808,"byteStride":12,"target":34962},{"buffer":0,"byteOffset":17616,"byteLength":11744,"target":34962},{"buffer":0,"byteOffset":29360,"byteLength":5872,"target":34962},{"buffer":0,"byteOffset":35232,"byteLength":2712,"target":34963}],"images":[{"uri":"Textures/colormap.png","name":"colormap"}],"materials":[{"pbrMetallicRoughness":{"baseColorTexture":{"index":0,"extensions":{"KHR_texture_transform":{"texCoord":0}}},"metallicFactor":0.0},"doubleSided":true,"name":"colormap"}],"meshes":[{"primitives":[{"attributes":{"POSITION":0,"NORMAL":1,"TANGENT":2,"TEXCOORD_0":3},"indices":4,"material":0}],"name":"building-small-a"}],"nodes":[{"mesh":0,"name":"building-small-a"}],"samplers":[{"minFilter":9987}],"textures":[{"sampler":0,"source":0,"name":"colormap"}]}