{"asset":{"generator":"UnityGLTF","version":"2.0"},"extensionsUsed":["KHR_texture_transform"],"scene":0,"scenes":[{"nodes":[0],"name":"building-small-c"}],"accessors":[{"bufferView":0,"componentType":5126,"count":1320,"type":"VEC3","max":[0.5,1.7500001192092896,0.5],"min":[-0.5,0.0,-0.5]},{"bufferView":1,"componentType":5126,"count":1320,"type":"VEC3","max":[1.0,1.0,1.0],"min":[-1.0,-1.0,-1.0]},{"bufferView":2,"componentType":5126,"count":1320,"type":"VEC4","max":[1.0,0.3826834559440613,1.0,1.0],"min":[-1.0,-0.3826834559440613,-1.0,1.0]},{"bufferView":3,"componentType":5126,"count":1320,"type":"VEC2","max":[0.96875,0.9750000238418579],"min":[0.09375,0.574999988079071]},{"bufferView":4,"componentType":5123,"count":2502,"type":"SCALAR","max":[1319.0],"min":[0.0]}],"buffers":[{"byteLength":68364,"uri":"data:application/octet-stream;base64,"}],"bufferViews":[{"buffer":0,"byteLength":15840,"byteStride":12,"target":34962},{"buffer":0,"byteOffset":15840,"byteLength":15840,"byteStride":12,"target":34962},{"buffer":0,"byteOffset":31680,"byteLength":21120,"target":34962},{"buffer":0,"byteOffset":52800,"byteLength":10560,"target":34962},{"buffer":0,"byteOffset":63360,"byteLength":5004,"target":34963}],"images":[{"uri":"Textures/colormap.png","name":"colormap"}],"materials":[{"pbrMetallicRoughness":{"baseColorTexture":{"index":0,"extensions":{"KHR_texture_transform":{"texCoord":0}}},"metallicFactor":0.0},"doubleSided":true,"name":"colormap"}],"meshes":[{"primitives":[{"attributes":{"POSITION":0,"NORMAL":1,"TANGENT":2,"TEXCOORD_0":3},"indices":4,"material":0}],"name":"building-small-c"}],"nodes":[{"mesh":0,"name":"building-small-c"}],"samplers":[{"minFilter":9987}],"textures":[{"sampler":0,"source":0,"name":"colormap"}]}