{"asset":{"generator":"UnityGLTF","version":"2.0"},"extensionsUsed":["KHR_texture_transform"],"scene":0,"scenes":[{"nodes":[0],"name":"grass-trees"}],"accessors":[{"bufferView":0,"componentType":5126,"count":712,"type":"VEC3","max":[0.5,0.6359213590621948,0.5],"min":[-0.5,0.0,-0.5]},{"bufferView":1,"componentType":5126,"count":712,"type":"VEC3","max":[1.0,1.0,1.0],"min":[-1.0,-1.0,-1.0]},{"bufferView":2,"componentType":5126,"count":712,"type":"VEC4","max":[1.0,0.17038798332214355,1.0,1.0],"min":[-1.0,-0.17038798332214355,-1.0,1.0]},{"bufferView":3,"componentType":5126,"count":712,"type":"VEC2","max":[0.71875,0.9750000238418579],"min":[0.21875,0.5249999761581421]},{"bufferView":4,"componentType":5123,"count":1140,"type":"SCALAR","max":[711.0],"min":[0.0]}],"buffers":[{"byteLength":36456,"uri":"data:application/octet-stream;base64,"}],"bufferViews":[{"buffer":0,"byteLength":8544,"byteStride":12,"target":34962},{"buffer":0,"byteOffset":8544,"byteLength":8544,"byteStride":12,"target":34962},{"buffer":0,"byteOffset":17088,"byteLength":11392,"target":34962},{"buffer":0,"byteOffset":28480,"byteLength":5696,"target":34962},{"buffer":0,"byteOffset":34176,"byteLength":2280,"target":34963}],"images":[{"uri":"Textures/colormap.png","name":"colormap"}],"materials":[{"pbrMetallicRoughness":{"baseColorTexture":{"index":0,"extensions":{"KHR_texture_transform":{"texCoord":0}}},"metallicFactor":0.0},"doubleSided":true,"name":"colormap"}],"meshes":[{"primitives":[{"attributes":{"POSITION":0,"NORMAL":1,"TANGENT":2,"TEXCOORD_0":3},"indices":4,"material":0}],"name":"grass-trees"}],"nodes":[{"mesh":0,"name":"grass-trees"}],"samplers":[{"minFilter":9987}],"textures":[{"sampler":0,"source":0,"name":"colormap"}]}